<?xml version="1.0" encoding="UTF-8"?>
<!DOCTYPE svg PUBLIC "-//W3C//DTD SVG 1.1//EN" "http://www.w3.org/Graphics/SVG/1.1/DTD/svg11.dtd">
<!-- Creator: CorelDRAW X5 -->
<svg xmlns="http://www.w3.org/2000/svg" xml:space="preserve" width="0.885421in" height="0.888882in" style="shape-rendering:geometricPrecision; text-rendering:geometricPrecision; image-rendering:optimizeQuality; fill-rule:evenodd; clip-rule:evenodd"
viewBox="0 0 182 183"
 xmlns:xlink="http://www.w3.org/1999/xlink">
 <defs>
  <style type="text/css">
   <![CDATA[
    .fil1 {fill:#FEFEFE}
    .fil0 {fill:#4F5D73}
   ]]>
  </style>
 </defs>
 <g id="Layer_x0020_1">
  <metadata id="CorelCorpID_0Corel-Layer"/>
  <ellipse class="fil0" cx="91" cy="92" rx="91" ry="92"/>
  <path class="fil1" d="M34 102c1,-1 3,-2 5,-2l0 -15c4,-2 7,-6 9,-8l0 0 0 21c0,-1 1,-1 1,-2 0,-1 1,-2 2,-3 2,-2 3,-2 7,-2 0,-2 0,0 1,-1l0 -20c1,1 3,3 5,4 1,1 4,3 5,4 1,-2 2,-3 3,-4 1,-1 3,-2 4,-3 0,0 -3,-2 -4,-2 -1,-1 -3,-2 -4,-3 -2,-2 -4,-4 -6,-7 -4,-7 -4,-14 -4,-22l-10 0c0,11 0,20 -4,29 -3,7 -10,14 -20,14l0 10c4,0 6,-1 10,-2l0 15zm41 -31c-2,1 -3,2 -4,3 -1,1 -3,2 -3,4l0 35 -10 0 0 -23c-1,1 -1,-1 -1,1 -3,0 -5,0 -7,2 -1,1 -1,1 -2,3 0,1 -1,1 -1,2l0 16 -10 0 0 -14c-2,0 -4,1 -5,2l0 11 -10 0 0 10 24 0 0 11c3,2 4,3 10,4l0 -15 41 0c3,0 11,-5 13,-7 1,-1 4,-4 4,-6l0 -32c2,-1 4,-2 5,-4 2,-1 3,-3 4,-4l0 29c1,0 2,0 3,0 2,0 6,-2 7,-4l0 -18 1 1c2,2 6,6 8,7l0 5c2,0 4,-1 5,-2 0,-1 0,0 1,0 0,0 1,0 1,0 1,0 2,0 2,1 2,0 4,1 5,1l0 -9c-1,-1 -1,0 -4,-1 -1,0 -2,-1 -3,-1 -2,-1 -4,-2 -5,-3 -12,-10 -12,-23 -12,-38l-10 0c0,8 1,14 -2,21 -5,10 -17,17 -28,18 -9,1 -12,-1 -19,-4zm69 19l0 23 -10 0 0 -18c0,2 -4,4 -7,4 -2,0 -2,0 -3,0l0 14 -10 0 0 -3c0,1 -3,4 -4,6 -2,2 -10,7 -13,7l26 0 0 15c5,0 6,-2 10,-4l0 -11 24 0 0 -10 -10 0 0 -25c-1,1 -3,2 -5,2z"/>
  <path class="fil0" d="M58 89l0 23 10 0 0 -35c-1,-1 -4,-3 -5,-4 -2,-1 -3,-3 -5,-4l0 20z"/>
  <path class="fil0" d="M116 109l0 3 10 0 0 -14 0 -29c-1,1 -3,3 -4,4 -2,1 -3,2 -5,4l0 32z"/>
  <path class="fil0" d="M135 94l0 18 10 0 0 -23 0 -5c-3,-1 -6,-5 -8,-7l-1 -1 0 18z"/>
  <path class="fil0" d="M39 99l0 14 10 0 0 -16 0 -21 0 0c-3,3 -6,6 -9,8l0 15z"/>
  <path class="fil0" d="M101 83l0 30 10 0 0 -33c-3,1 -6,2 -10,3zm-14 30l10 0 0 -29 -10 0 0 29zm-14 -24l0 24 10 0 0 -30c-4,-1 -6,-2 -10,-3l0 9z"/>
 </g>
</svg>
