<?xml version="1.0" encoding="utf-8"?>
<!-- Generator: Adobe Illustrator 15.1.0, SVG Export Plug-In . SVG Version: 6.00 Build 0)  -->
<!DOCTYPE svg PUBLIC "-//W3C//DTD SVG 1.1//EN" "http://www.w3.org/Graphics/SVG/1.1/DTD/svg11.dtd">
<svg version="1.1" id="Layer_1" xmlns="http://www.w3.org/2000/svg" xmlns:xlink="http://www.w3.org/1999/xlink" x="0px" y="0px"
	 width="64px" height="64px" viewBox="0 0 64 64" enable-background="new 0 0 64 64" xml:space="preserve">
<g>
	<defs>
		<rect id="SVGID_1_" width="64" height="64"/>
	</defs>
	<clipPath id="SVGID_2_">
		<use xlink:href="#SVGID_1_"  overflow="visible"/>
	</clipPath>
	<path clip-path="url(#SVGID_2_)" fill="#FFFFFF" d="M46.828,22.829C46.048,23.609,45.023,24,44,24s-2.048-0.391-2.828-1.172
		c-1.563-1.562-1.563-4.095,0-5.657l6.476-6.475C46.517,10.252,45.288,10,44,10c-5.522,0-10,4.477-10,10
		c0,1.288,0.252,2.516,0.696,3.647L23.647,34.696C22.517,34.252,21.289,34,20,34c-5.523,0-10,4.478-10,10
		c0,1.288,0.252,2.517,0.696,3.647l6.475-6.476C17.953,40.391,18.977,40,20,40c1.023,0,2.047,0.391,2.828,1.172
		c1.562,1.562,1.562,4.095,0,5.656l-6.476,6.477C17.484,53.747,18.711,54,20,54c5.522,0,10-4.478,10-10
		c0-1.289-0.253-2.516-0.696-3.647l11.048-11.048C41.484,29.748,42.711,30,44,30c5.522,0,10-4.478,10-10
		c0-1.289-0.253-2.516-0.695-3.648L46.828,22.829z"/>
	<polygon clip-path="url(#SVGID_2_)" fill="#FFFFFF" points="21.004,23.95 21.013,23.942 26.326,29.19 29.188,26.327 23.866,21.07 
		20.829,15.172 14.917,12.128 12.051,14.996 15.094,20.906 	"/>
	<path clip-path="url(#SVGID_2_)" fill="#FFFFFF" d="M39.071,33.414l-5.657,5.657l10.829,10.828c1.562,1.562,4.094,1.562,5.656,0
		c1.563-1.563,1.563-4.094,0-5.657L39.071,33.414z"/>
	<path clip-path="url(#SVGID_2_)" fill="#4F5D73" d="M32,0C14.327,0,0,14.327,0,32s14.327,32,32,32s32-14.327,32-32S49.673,0,32,0
		 M14.917,12.128l5.911,3.044l3.037,5.898l5.323,5.257l-2.863,2.863l-5.313-5.248l-0.007,0.008l-5.911-3.044l-3.044-5.911
		L14.917,12.128z M49.899,49.899c-1.563,1.563-4.095,1.563-5.656,0L33.414,39.071l5.657-5.657l10.828,10.829
		C51.462,45.805,51.462,48.337,49.899,49.899 M44,30c-1.289,0-2.516-0.252-3.647-0.696L29.304,40.353C29.748,41.484,30,42.711,30,44
		c0,5.523-4.477,10-10,10c-1.289,0-2.516-0.252-3.647-0.696l6.475-6.476c1.563-1.563,1.563-4.094,0-5.656
		C22.047,40.391,21.024,40,20,40s-2.047,0.391-2.828,1.172l-6.476,6.476C10.252,46.516,10,45.289,10,44c0-5.523,4.477-10,10-10
		c1.289,0,2.516,0.252,3.647,0.696l11.049-11.049C34.252,22.516,34,21.289,34,20c0-5.523,4.477-10,10-10
		c1.289,0,2.516,0.252,3.647,0.696l-6.476,6.476c-1.563,1.562-1.563,4.094,0,5.656C41.953,23.609,42.976,24,44,24
		s2.047-0.391,2.828-1.172l6.476-6.475C53.748,17.484,54,18.711,54,20C54,25.523,49.523,30,44,30"/>
</g>
</svg>
