<?xml version="1.0" encoding="utf-8"?>
<!-- Generator: Adobe Illustrator 15.1.0, SVG Export Plug-In . SVG Version: 6.00 Build 0)  -->
<!DOCTYPE svg PUBLIC "-//W3C//DTD SVG 1.1//EN" "http://www.w3.org/Graphics/SVG/1.1/DTD/svg11.dtd">
<svg version="1.1" id="Layer_1" xmlns="http://www.w3.org/2000/svg" xmlns:xlink="http://www.w3.org/1999/xlink" x="0px" y="0px"
	 width="64px" height="64px" viewBox="0 0 64 64" enable-background="new 0 0 64 64" xml:space="preserve">
<g>
	<defs>
		<rect id="SVGID_1_" width="64" height="64"/>
	</defs>
	<clipPath id="SVGID_2_">
		<use xlink:href="#SVGID_1_"  overflow="visible"/>
	</clipPath>
	<path clip-path="url(#SVGID_2_)" fill="#FFFFFF" d="M24,52h16c2.209,0,4-1.791,4-4V16c0-2.209-1.791-4-4-4H24c-2.209,0-4,1.791-4,4
		v32C20,50.209,21.791,52,24,52 M34,34h3.779C37.3,33.468,37,32.772,37,32c0-0.772,0.3-1.468,0.779-2H34V16h6v13
		c1.657,0,3,1.343,3,3s-1.343,3-3,3v13h-6V34z M24,16h6v14h-6V16z M24,34h6v14h-6V34z"/>
	<path clip-path="url(#SVGID_2_)" fill="#4F5D73" d="M31.833,64c17.673,0,32-14.327,32-32s-14.327-32-32-32s-32,14.327-32,32
		S14.16,64,31.833,64 M20,16c0-2.209,1.791-4,4-4h16c2.209,0,4,1.791,4,4v32c0,2.209-1.791,4-4,4H24c-2.209,0-4-1.791-4-4V16z"/>
	<rect x="24" y="16" clip-path="url(#SVGID_2_)" fill="#4F5D73" width="6" height="14"/>
	<rect x="24" y="34" clip-path="url(#SVGID_2_)" fill="#4F5D73" width="6" height="14"/>
	<path clip-path="url(#SVGID_2_)" fill="#4F5D73" d="M40,35c1.657,0,3-1.343,3-3s-1.343-3-3-3V16h-6v14h3.779
		C37.3,30.532,37,31.228,37,32c0,0.772,0.3,1.468,0.779,2H34v14h6V35z"/>
</g>
</svg>
