<?xml version="1.0" encoding="UTF-8"?>
<!DOCTYPE svg PUBLIC "-//W3C//DTD SVG 1.1//EN" "http://www.w3.org/Graphics/SVG/1.1/DTD/svg11.dtd">
<!-- Creator: CorelDRAW X5 -->
<svg xmlns="http://www.w3.org/2000/svg" xml:space="preserve" width="0.480677in" height="0.511535in" style="shape-rendering:geometricPrecision; text-rendering:geometricPrecision; image-rendering:optimizeQuality; fill-rule:evenodd; clip-rule:evenodd"
viewBox="0 0 93 99"
 xmlns:xlink="http://www.w3.org/1999/xlink">
 <defs>
  <style type="text/css">
   <![CDATA[
    .fil0 {fill:#4F5D73}
   ]]>
  </style>
 </defs>
 <g id="Layer_x0020_1">
  <metadata id="CorelCorpID_0Corel-Layer"/>
  <g id="_636979184">
   <path class="fil0" d="M3 59l11 0c0,-10 0,-21 0,-32 0,-8 3,-26 -6,-26 -8,0 -6,18 -6,26 0,11 0,22 0,32z"/>
   <path class="fil0" d="M41 39l11 0c0,10 0,21 0,32 0,8 3,26 -6,26 -8,0 -6,-18 -6,-26 0,-11 0,-22 0,-32z"/>
   <path class="fil0" d="M80 42l11 0 1 -5 0 -26c0,-15 -11,-14 -11,-2 0,10 0,22 0,33z"/>
   <path class="fil0" d="M80 69c0,8 -3,30 6,30 9,0 6,-23 5,-31l-11 1z"/>
   <path class="fil0" d="M83 48c-9,4 -6,18 5,15 10,-3 6,-19 -5,-15z"/>
   <path class="fil0" d="M44 18c-11,5 -3,18 6,15 9,-4 4,-19 -6,-15z"/>
   <path class="fil0" d="M5 65c-11,5 -3,18 6,15 9,-4 4,-19 -6,-15z"/>
   <path class="fil0" d="M8 99c7,-2 6,-6 6,-14l-11 0c0,8 -1,11 6,14z"/>
   <path class="fil0" d="M41 12l11 0c0,-7 0,-9 -6,-11 -6,2 -5,4 -6,11z"/>
   <polygon class="fil0" points="47,38 41,39 47,38 "/>
  </g>
 </g>
</svg>
