<?xml version="1.0" encoding="UTF-8"?>
<!DOCTYPE svg PUBLIC "-//W3C//DTD SVG 1.1//EN" "http://www.w3.org/Graphics/SVG/1.1/DTD/svg11.dtd">
<!-- Creator: CorelDRAW X5 -->
<svg xmlns="http://www.w3.org/2000/svg" xml:space="preserve" width="5.08043in" height="5.0871in" style="shape-rendering:geometricPrecision; text-rendering:geometricPrecision; image-rendering:optimizeQuality; fill-rule:evenodd; clip-rule:evenodd"
viewBox="0 0 56262 56335"
 xmlns:xlink="http://www.w3.org/1999/xlink">
 <defs>
  <style type="text/css">
   <![CDATA[
    .fil1 {fill:#FEFEFE}
    .fil0 {fill:#0285C9}
    .fil2 {fill:#FEFFFF}
   ]]>
  </style>
 </defs>
 <g id="Layer_x0020_1">
  <metadata id="CorelCorpID_0Corel-Layer"/>
  <path class="fil0" d="M0 26423l0 4036 54 123c30,109 29,70 45,207 473,3839 1060,5975 2701,9682 1162,2625 3456,5642 5320,7523 3031,3059 7594,6050 11969,7221 1105,296 3406,852 4588,998 257,32 528,-14 745,122l5430 0 363 -98c893,-135 1376,-171 2350,-371 3042,-624 6607,-1892 9171,-3532 640,-409 1226,-806 1886,-1285 5685,-4123 9801,-10337 11161,-17328 40,-207 388,-2523 477,-2667l0 -5431c-207,-350 -176,-978 -234,-1470 -318,-2683 -1571,-6446 -2752,-8686 -1550,-2941 -3157,-5226 -5541,-7530 -1366,-1321 -2078,-1856 -3609,-2963 -1695,-1225 -4485,-2643 -6472,-3339 -1612,-565 -3497,-1069 -5241,-1295 -324,-42 -2773,-308 -2848,-340l-2867 0c-504,220 -4798,-33 -10543,2709 -240,115 -417,146 -635,267 -142,78 -325,186 -518,286 -2574,1339 -4567,2972 -6672,4920 -1047,969 -2185,2340 -3056,3586 -434,621 -971,1369 -1318,2007 -210,386 -451,742 -619,1075 -1510,2983 -2364,5352 -2945,8653 -86,490 -302,2753 -391,2922z"/>
  <circle class="fil1" cx="27961" cy="27991" r="25174"/>
  <path class="fil0" d="M29146 21472c30,-250 -25,-48 94,-211 104,-142 281,-197 320,-439 -789,-694 -690,-470 -964,-681 -243,-187 -548,-718 -941,-684 -609,53 -561,409 -1014,693 -625,392 -736,471 -767,851 -561,43 -419,126 -638,317 -67,58 -104,74 -171,121 -612,426 -2,204 -563,463l-1419 1033c-559,411 -954,1084 -1439,839 -68,-34 -174,-131 -212,-165l-488 -401c-271,-236 -268,-456 -238,-881 790,-206 1300,-920 1751,-1268l894 -655c427,-239 428,-522 979,-561 267,-32 868,-597 1087,-771 329,-261 834,-536 1044,-908 -116,-260 -103,-177 -496,-493l-1674 -1319c-257,-37 -2848,2161 -3216,2433 -566,419 -2894,2358 -3208,2455 -168,-232 -348,-665 -547,-977 -222,-348 -438,-589 -691,-863 -587,-638 -1123,-856 -1765,-1266 -591,-145 -1141,-525 -1813,-451 -896,196 -5711,-126 -5965,112 -230,216 -126,5107 -126,5759 0,1066 -90,5090 58,5828 751,93 6020,132 6965,-189 356,-121 652,-472 1219,-359 579,-74 1768,-1343 2149,-1960 181,-293 370,-699 515,-873 280,89 4786,3727 5521,4292 1092,840 601,760 2356,-556 950,-712 3827,-3070 4460,-3452 114,-214 17,-101 226,-289 80,-72 126,-94 207,-155 183,-138 272,-244 529,-332 581,612 -127,2677 243,3932 334,74 1640,33 2036,33 1275,1 5226,126 5916,-106l8 -2524c-273,-204 -199,-164 -248,-281 -36,-85 0,-60 -65,-149 -1164,-90 -2563,117 -3692,-52 -151,-450 -295,-55 -237,-812 89,-1166 101,-7033 33,-7608 -484,-345 -2973,-180 -3709,-148 -168,807 -30,2635 -61,3546 -17,521 -114,459 -198,515 -95,0 -67,-17 -216,119 -192,174 -147,19 -117,201 -164,428 -228,313 -683,618 -281,188 -328,386 -562,550 -198,138 -221,48 -394,194 -140,118 -74,160 -260,330 -336,308 -887,537 -1161,841 -514,568 -493,231 -800,603l-90 137c-90,127 -44,100 -173,180 -316,197 -480,110 -857,748l-704 150c-298,-196 -312,-293 -663,-473 -814,-418 -98,-991 -12,-1119 166,-246 133,-302 158,-354 318,48 975,-447 1213,-626 168,-126 312,-296 506,-452 225,-181 295,-337 474,-492 152,-132 418,-231 596,-357l1076 -844c270,-281 242,-364 621,-337m-18312 4673c1897,170 3555,-331 3560,-2519 5,-2177 -1605,-2715 -3551,-2529l-10 5048zm20360 -4290c84,-56 181,6 198,-515 31,-911 -107,-2739 61,-3546 736,-32 3225,-197 3709,148 68,575 56,6442 -33,7608 -58,757 86,362 237,812 1128,169 2528,-38 3692,52 65,89 29,65 65,149 49,116 -24,76 248,281l-8 2524c-690,232 -4641,107 -5916,106 -397,0 -1702,41 -2036,-33 -370,-1255 338,-3319 -243,-3932 77,773 -99,3681 80,4080 215,141 7910,175 8259,20 135,-334 98,-2867 29,-3403l-4125 -44c-190,-593 59,-7049 -61,-8508 -577,-95 -3711,-128 -4084,26 -222,569 -24,3286 -72,4174zm-17093 7526c297,-61 875,-286 1102,-548 -568,-113 -863,238 -1219,359 -945,321 -6214,282 -6965,189 -148,-738 -58,-4763 -58,-5828 0,-653 -104,-5543 126,-5759 253,-238 5069,84 5965,-112 -261,-170 -5620,-198 -6236,-87 -105,777 -77,11739 21,12031 536,60 4676,58 5570,19 644,-28 1088,-178 1695,-263zm16244 -6999c189,-71 132,-60 211,-92 273,-111 -79,4 305,-116 -31,-182 -75,-27 117,-201 149,-135 121,-118 216,-119 48,-888 -151,-3606 72,-4174 373,-154 3506,-122 4084,-26 120,1458 -128,7915 61,8508l4125 44c69,537 105,3069 -29,3403 -349,155 -8043,120 -8259,-20 -179,-399 -3,-3307 -80,-4080 -257,88 -346,194 -529,332 -81,61 -127,83 -207,155 -210,188 -112,76 -226,289 235,-64 620,-388 846,-570 100,769 -102,3564 103,3957 106,89 -12,37 165,89 264,78 5649,40 6189,39 2704,0 2182,331 2181,-1890 -1,-2285 436,-1835 -2033,-1835 -2706,-1 -2157,455 -2157,-2152 0,-1197 85,-5851 -31,-6372 -503,-139 -1590,-60 -2168,-61l-1630 -20c-864,6 -573,296 -573,2762 0,2292 -113,1261 -750,2151zm-6016 -2540c-551,39 -552,322 -979,561l-894 655c-451,348 -961,1062 -1751,1268 -30,425 -32,645 238,881l488 401c38,34 144,131 212,165 484,245 880,-427 1439,-839l1419 -1033c561,-259 -50,-37 563,-463 66,-46 104,-63 171,-121 219,-191 77,-274 638,-317 31,-380 142,-459 767,-851 453,-284 406,-640 1014,-693 393,-34 698,498 941,684 274,210 176,-13 964,681 -39,242 -216,297 -320,439 -119,163 -64,-38 -94,211 319,-5 652,-316 793,-577 -152,-311 -1908,-1670 -2252,-1809 -532,270 -924,686 -1447,1097l-2906 2267c-447,334 -1046,912 -1480,1106 -147,-82 -894,-620 -1018,-816 160,-339 2979,-2283 3379,-2742 119,-137 0,60 114,-157zm6532 2333c-384,120 -32,5 -305,116 -79,32 -22,21 -211,92 -81,152 -2120,1703 -2457,1962 -496,382 -2201,1823 -2564,1943 -279,-115 -840,-580 -977,-814 182,-343 1915,-1589 2394,-1979l2165 -1676c226,-177 211,-189 239,-345 -378,-27 -350,56 -621,337l-1076 844c-178,126 -444,225 -596,357 -179,154 -248,311 -474,492 -194,156 -338,326 -506,452 -238,179 -895,674 -1213,626 -25,52 7,108 -158,354 -86,128 -802,702 12,1119 352,180 365,277 663,473l704 -150c377,-638 542,-551 857,-748 129,-80 83,-54 173,-180l90 -137c308,-372 287,-34 800,-603 275,-304 826,-533 1161,-841 186,-171 120,-212 260,-330 173,-146 196,-56 394,-194 234,-163 281,-361 562,-550 455,-305 519,-190 683,-618z"/>
  <path class="fil0" d="M14416 43101c1030,102 4683,86 5589,-128 705,-167 1547,-591 1922,-963 1083,-1074 806,-1206 1183,-1669 528,665 332,988 1649,2015 1585,1236 3883,1204 5553,-10 726,-528 1193,-1249 1710,-2034l5 2881 3230 0c0,-879 38,-2945 -45,-3756 -59,-575 -232,-903 -36,-1126 107,278 1873,3130 2182,3632 221,358 585,887 738,1247l3253 4 0 -9294 -3223 2c-34,891 -14,1840 -7,2722 4,448 30,845 93,1276 41,283 253,930 85,1148l-3024 -5136 -3234 -12 -13 5129c-439,-325 -1971,-1720 -2232,-1852 -60,1110 -221,1794 -876,2300 -2124,1640 -4356,-1795 -1836,-3093 368,-190 886,-245 1200,-426 -307,-290 -2363,-1857 -2734,-2097 -607,303 -1034,790 -1439,1175 -654,622 -820,1300 -1085,1597 -499,-1298 -1558,-2199 -3110,-2569 -1237,-294 -4159,-342 -5489,-222l-7 9259z"/>
  <path class="fil0" d="M49104 29684c59,-93 15,79 61,-164 40,-210 13,-3198 7,-3314 -901,-232 -3053,65 -4137,-68 -116,-328 -49,-5302 -49,-6350 0,-199 65,-2043 -73,-2168 -294,-122 -3730,-124 -4194,-19 -144,1301 2,9205 -39,11570 -12,706 51,575 740,573 861,-3 1725,7 2586,7 334,0 4837,93 5099,-65z"/>
  <path class="fil0" d="M40894 29541c616,133 7300,151 8122,48l13 -3286c-663,-89 -3847,125 -4096,-129 -182,-183 -100,-491 -96,-922 11,-1180 102,-7238 -49,-7427 -48,-60 -225,-107 -338,-122 -536,-68 -3304,-13 -3575,55 -111,913 -93,11469 18,11782z"/>
  <path class="fil2" d="M17794 40332c1319,-3 2209,-453 2185,-1793 -25,-1367 -822,-1797 -2185,-1807l0 3600z"/>
 </g>
</svg>
