<?xml version="1.0" encoding="UTF-8"?>
<!DOCTYPE svg PUBLIC "-//W3C//DTD SVG 1.1//EN" "http://www.w3.org/Graphics/SVG/1.1/DTD/svg11.dtd">
<!-- Creator: CorelDRAW X5 -->
<svg xmlns="http://www.w3.org/2000/svg" xml:space="preserve" style="shape-rendering:geometricPrecision; text-rendering:geometricPrecision; image-rendering:optimizeQuality; fill-rule:evenodd; clip-rule:evenodd"
viewBox="0 0 50 50"
 xmlns:xlink="http://www.w3.org/1999/xlink">
 <defs>
  <style type="text/css">
   <![CDATA[
    .fil1 {fill:white}
    .fil0 {fill:#399683}
   ]]>
  </style>
 </defs>
 <g id="Layer_x0020_1">
  <metadata id="CorelCorpID_0Corel-Layer"/>
  <g id="_638353536">
   <circle class="fil0" cx="23" cy="23" r="23"/>
   <g>
    <path class="fil1" d="M27 8c-1,1 -1,0 -1,1l-10 26c0,2 1,3 2,2 1,0 10,-25 11,-27 0,-2 -1,-3 -2,-2z"/>
    <path class="fil1" d="M7 23c1,-1 7,-4 8,-5 1,-1 0,-2 -1,-2 0,0 -10,4 -10,8 0,2 3,4 5,5 1,1 5,3 6,3 1,0 2,-1 1,-2 -1,-1 -7,-4 -8,-6z"/>
    <path class="fil1" d="M38 23c-1,1 -4,3 -5,4 -1,0 -2,1 -3,2 -1,1 0,2 1,2 0,0 10,-4 10,-8 0,-2 -3,-4 -5,-5 -1,-1 -5,-3 -6,-3 -1,0 -2,1 -1,2 1,1 7,4 8,6z"/>
   </g>
  </g>
 </g>
</svg>
