<?xml version="1.0" encoding="UTF-8"?>
<!DOCTYPE svg PUBLIC "-//W3C//DTD SVG 1.1//EN" "http://www.w3.org/Graphics/SVG/1.1/DTD/svg11.dtd">
<!-- Creator: CorelDRAW X5 -->
<svg xmlns="http://www.w3.org/2000/svg" xml:space="preserve" width="0.454602in" height="0.455173in" style="shape-rendering:geometricPrecision; text-rendering:geometricPrecision; image-rendering:optimizeQuality; fill-rule:evenodd; clip-rule:evenodd"
viewBox="0 0 29 29"
 xmlns:xlink="http://www.w3.org/1999/xlink">
 <defs>
  <style type="text/css">
   <![CDATA[
    .fil1 {fill:#FEFEFE}
    .fil0 {fill:#4F5D73}
   ]]>
  </style>
 </defs>
 <g id="Layer_x0020_1">
  <metadata id="CorelCorpID_0Corel-Layer"/>
  <g id="_636966056">
   <path class="fil0" d="M8 11c-11,0 -12,18 0,18 5,0 9,-4 9,-9l0 -3c4,-1 4,-1 3,-5l4 0 0 -5 3 -1c0,-5 0,-5 -3,-5 -3,0 -10,7 -12,9 -2,2 -2,2 -5,2z"/>
   <path class="fil1" d="M5 20c-1,1 -1,0 -1,2 -1,3 2,4 4,3 3,-1 1,-7 -3,-5z"/>
  </g>
 </g>
</svg>
