<?xml version="1.0" encoding="UTF-8"?>
<!DOCTYPE svg PUBLIC "-//W3C//DTD SVG 1.1//EN" "http://www.w3.org/Graphics/SVG/1.1/DTD/svg11.dtd">
<!-- Creator: CorelDRAW X5 -->
<svg xmlns="http://www.w3.org/2000/svg" xml:space="preserve" width="0.528815in" height="0.529654in" style="shape-rendering:geometricPrecision; text-rendering:geometricPrecision; image-rendering:optimizeQuality; fill-rule:evenodd; clip-rule:evenodd"
viewBox="0 0 50 50"
 xmlns:xlink="http://www.w3.org/1999/xlink">
 <defs>
  <style type="text/css">
   <![CDATA[
    .fil1 {fill:#FEFEFE}
    .fil0 {fill:#4F5D73}
   ]]>
  </style>
 </defs>
 <g id="Layer_x0020_1">
  <metadata id="CorelCorpID_0Corel-Layer"/>
  <g id="_636992240">
   <path class="fil0" d="M16 27c5,-4 4,-9 14,-7 4,7 -2,11 -7,14 19,0 30,-21 27,-34 -13,-2 -32,7 -34,27z"/>
   <path class="fil0" d="M22 37c-1,3 -5,9 -5,13 4,0 10,-4 13,-6 5,-3 8,-4 8,-12 -3,1 -4,2 -8,3 -3,1 -6,1 -9,2z"/>
   <path class="fil0" d="M12 28c2,-7 1,-10 5,-16 -5,-1 -8,1 -10,4 -2,3 -4,6 -5,9 -5,10 -5,10 9,3z"/>
   <path class="fil1" d="M34 9c-7,2 -4,12 3,10 6,-2 4,-12 -3,-10z"/>
   <path class="fil0" d="M0 50c6,0 18,-9 20,-12 -5,0 -9,9 -12,6 -3,-2 0,-4 2,-7 2,-2 4,-4 3,-7 -1,1 -11,10 -12,20z"/>
   <path class="fil0" d="M12 38l13 -10c2,-2 2,-2 3,-6 -6,0 -5,1 -9,7 -2,3 -5,6 -7,9z"/>
   <path class="fil0" d="M41 9c3,1 4,1 5,-2 -2,-4 -6,-4 -5,2z"/>
  </g>
 </g>
</svg>
