<?xml version="1.0" encoding="UTF-8"?>
<!DOCTYPE svg PUBLIC "-//W3C//DTD SVG 1.1//EN" "http://www.w3.org/Graphics/SVG/1.1/DTD/svg11.dtd">
<!-- Creator: CorelDRAW X5 -->
<svg xmlns="http://www.w3.org/2000/svg" xml:space="preserve" width="2.08361in" height="0.716886in" style="shape-rendering:geometricPrecision; text-rendering:geometricPrecision; image-rendering:optimizeQuality; fill-rule:evenodd; clip-rule:evenodd"
viewBox="0 0 4256 1464"
 xmlns:xlink="http://www.w3.org/1999/xlink">
 <defs>
  <style type="text/css">
   <![CDATA[
    .fil1 {fill:#9CCB48}
    .fil0 {fill:#9CCB48;fill-rule:nonzero}
    .fil2 {fill:#7DA43E;fill-rule:nonzero}
   ]]>
  </style>
 </defs>
 <g id="Layer_x0020_1">
  <metadata id="CorelCorpID_0Corel-Layer"/>
  <g id="_455755872">
   <polygon class="fil0" points="18,1149 79,1149 79,18 18,18 "/>
   <path class="fil0" d="M61 1131l0 -1094 -24 0 0 1094 24 0 0 0zm-43 37l0 -18 18 0 -18 0 0 18 -18 0 0 -1168 98 0 0 1168 -79 0 0 0z"/>
   <path class="fil0" d="M622 1094c-42,45 -100,67 -176,67 -74,0 -132,-22 -173,-66 -41,-44 -61,-105 -61,-183l0 -394 63 0 0 394c0,60 13,106 40,139 28,33 71,49 131,49 117,0 176,-63 176,-188l0 -394 61 0 0 394c0,77 -20,138 -61,182z"/>
   <path class="fil0" d="M231 913c0,75 19,131 56,171l0 0c37,39 88,60 159,60l0 0c72,0 124,-21 162,-61l0 0c37,-40 56,-95 56,-169l0 -376 -24 0 0 376c0,65 -15,117 -49,154l0 0c-34,36 -84,53 -145,53l0 0c-63,0 -113,-17 -146,-56l0 0c-30,-37 -44,-88 -44,-151l0 0 0 -376 -26 0 0 376zm216 267c-78,0 -142,-23 -186,-72l0 0c-45,-48 -66,-114 -66,-196l0 -413 99 0 0 413c0,58 13,99 35,127l0 0c23,27 60,42 117,42l0 0c56,0 93,-15 118,-41l0 0c25,-27 39,-68 39,-128l0 -413 98 0 0 413c0,80 -21,146 -66,194l0 0 -13 -12 13 13c-45,49 -110,73 -188,73l0 0c0,0 -1,0 -1,0l0 0z"/>
   <path class="fil0" d="M1113 1162c-94,0 -172,-31 -234,-93 -62,-62 -93,-140 -93,-234 0,-94 31,-172 93,-234 62,-62 140,-93 234,-93 80,0 145,18 193,55l0 75 -40 -26 -43 -23c-39,-13 -75,-20 -110,-20 -78,0 -142,24 -191,73 -50,50 -75,114 -75,193 0,77 25,141 75,191 50,50 114,75 191,75 73,0 138,-24 193,-73l0 78c-57,38 -121,57 -193,57z"/>
   <path class="fil0" d="M866 1081c-66,-65 -99,-149 -99,-247l0 0c0,-98 33,-181 99,-247l0 0c65,-66 149,-99 247,-99l0 0c83,0 152,19 204,59l0 0 7 6 0 118 -67 -44c-50,-27 -85,-40 -143,-40l0 0c-75,0 -133,23 -178,68l0 0c-46,47 -69,105 -70,180l0 0c0,74 23,131 70,178l0 0c47,46 105,69 178,70l0 0c69,0 128,-23 180,-69l0 0 31 -27 0 129 -8 5c-60,40 -128,60 -203,60l0 -37c65,0 122,-16 174,-48l0 -30c-51,36 -110,54 -174,54l0 0c-81,0 -151,-27 -204,-80l0 0c-53,-53 -80,-123 -80,-204l0 0c0,-82 27,-152 80,-206l0 0c52,-53 122,-79 204,-79l0 0c37,0 76,7 116,21l0 0 1 0 45 24 12 8 0 -32c-43,-30 -101,-46 -174,-46l0 0c-90,0 -162,29 -221,88l0 0c-59,59 -88,131 -88,221l0 0c0,90 29,162 88,221l0 0c59,59 131,88 221,88l0 37c0,0 -1,0 -1,0l0 0c-97,0 -181,-33 -246,-99l0 0z"/>
   <polygon class="fil0" points="1802,581 1802,1149 1739,1149 1739,581 1654,581 1654,518 1739,518 1739,242 1802,242 1802,518 1875,518 1875,581 "/>
   <path class="fil0" d="M1802 599l0 -18 0 18zm-130 -37l86 0 0 569 26 0 0 -569 73 0 0 -26 -73 0 0 -277 -26 0 0 277 -86 0 0 26zm49 605l0 -569 -86 0 0 -99 86 0 0 -277 99 0 0 277 73 0 0 99 -73 0 0 569 -99 0 0 0z"/>
   <polygon class="fil0" points="2143,1446 2073,1446 2236,1091 1970,518 2037,518 2273,1016 2505,518 2574,518 "/>
   <path class="fil0" d="M2256 1091l-155 336 30 0 414 -891 -28 0 -244 523 -247 -523 -27 0 257 555 0 0zm-212 373l111 0 5 -11 443 -954 -109 0 -221 473 -224 -473 -108 0 275 592 -172 373zm99 -18l0 -18 0 18z"/>
   <g>
    <polygon class="fil0" points="1452,1168 1452,1149 1470,1149 1452,1149 1452,1168 1434,1168 1434,500 1533,500 1533,1168 1452,1168 "/>
    <polygon class="fil0" points="1496,1131 1496,537 1470,537 1470,1131 1496,1131 "/>
    <circle class="fil1" cx="1484" cy="355" r="68"/>
   </g>
   <path class="fil2" d="M3053 790l-137 -311 -137 311 275 0zm266 338l-118 0 -109 -247 -355 0 -109 247 -118 0 405 -880 404 880z"/>
   <polygon id="1" class="fil2" points="4256,1128 4149,1128 4068,573 3795,1153 3526,573 3444,1128 3336,1128 3480,248 3797,927 4115,248 "/>
  </g>
 </g>
</svg>
