<?xml version="1.0" encoding="UTF-8"?>
<!DOCTYPE svg PUBLIC "-//W3C//DTD SVG 1.1//EN" "http://www.w3.org/Graphics/SVG/1.1/DTD/svg11.dtd">
<!-- Creator: CorelDRAW X5 -->
<svg xmlns="http://www.w3.org/2000/svg" xml:space="preserve" width="1.77777in" height="1.77777in" style="shape-rendering:geometricPrecision; text-rendering:geometricPrecision; image-rendering:optimizeQuality; fill-rule:evenodd; clip-rule:evenodd"
viewBox="0 0 870 870"
 xmlns:xlink="http://www.w3.org/1999/xlink">
 <defs>
  <style type="text/css">
   <![CDATA[
    .fil0 {fill:#4F5C73}
    .fil2 {fill:#9CA4B0}
    .fil1 {fill:#FEFEFE}
   ]]>
  </style>
 </defs>
 <g id="Layer_x0020_1">
  <metadata id="CorelCorpID_0Corel-Layer"/>
  <g id="_374501144">
   <path class="fil0" d="M0 401c0,147 19,235 126,343 75,75 171,118 269,126l78 0c98,-9 194,-51 269,-126 75,-75 118,-171 126,-269l0 -78c-9,-98 -51,-194 -126,-269 -75,-75 -171,-118 -269,-126l-78 0c-98,9 -194,51 -269,126 -59,59 -126,161 -126,275z"/>
   <path class="fil1" d="M402 141c-154,20 -284,151 -263,332 18,151 160,282 335,259 153,-20 278,-161 257,-335 -19,-149 -159,-279 -328,-257z"/>
   <path class="fil0" d="M333 181c18,20 19,5 48,13 14,80 -41,-6 -70,37 21,14 45,-14 49,21 3,32 -8,23 -13,28 -1,1 -3,2 -4,3l-20 13c-19,9 -41,7 -56,25 -13,16 -11,41 -23,59l-10 -39c-27,4 -31,8 -39,33 18,32 -16,-25 10,11 18,23 7,23 14,64 34,15 73,13 104,44 12,12 21,29 36,39 24,17 31,6 58,26 -20,103 -91,44 -91,129 44,27 113,30 167,18 25,-5 53,-17 74,-28 29,-15 41,-32 63,-46l-14 -107c-36,-8 -61,9 -86,-15 -16,-15 -33,-48 -36,-68 5,-13 49,-75 55,-81 24,-4 56,1 73,-4 20,-6 33,-23 37,-37 -59,-36 -32,2 -66,-9 -4,-1 -10,-6 -21,-9 -17,25 -11,35 -36,45 -34,-31 -4,-18 0,-47 3,-19 -1,4 -4,-19 24,-13 28,-8 38,-33 -1,0 -63,7 -50,-42 6,-24 3,8 16,-27 -59,-23 -147,-27 -203,1z"/>
   <path class="fil0" d="M297 671c-12,-27 -22,-51 -36,-83 -12,-26 -35,-48 -39,-82 -4,-29 5,-11 -6,-42 -41,-109 -27,-72 -25,-147 -64,73 -33,291 106,354z"/>
   <path class="fil1" d="M402 240c0,11 -2,8 10,6 7,-14 74,-53 21,-68 -13,-4 -19,-1 -32,1l1 61z"/>
   <path class="fil2" d="M413 246c-12,1 -10,5 -10,-6l-9 11c39,7 4,3 20,-5z"/>
  </g>
 </g>
</svg>
