<?xml version="1.0" encoding="UTF-8"?>
<!DOCTYPE svg PUBLIC "-//W3C//DTD SVG 1.1//EN" "http://www.w3.org/Graphics/SVG/1.1/DTD/svg11.dtd">
<!-- Creator: CorelDRAW X5 -->
<svg xmlns="http://www.w3.org/2000/svg" xml:space="preserve" width="1.77777in" height="1.77777in" style="shape-rendering:geometricPrecision; text-rendering:geometricPrecision; image-rendering:optimizeQuality; fill-rule:evenodd; clip-rule:evenodd"
viewBox="0 0 519 519"
 xmlns:xlink="http://www.w3.org/1999/xlink">
 <defs>
  <style type="text/css">
   <![CDATA[
    .fil0 {fill:#4F5D73}
    .fil1 {fill:white}
   ]]>
  </style>
 </defs>
 <g id="Layer_x0020_1">
  <metadata id="CorelCorpID_0Corel-Layer"/>
  <g id="_320298792">
   <path class="fil0" d="M0 239c0,88 11,140 75,204 45,45 102,70 161,75l47 0c59,-5 116,-30 161,-75 45,-45 70,-102 75,-161l0 -47c-5,-59 -30,-116 -75,-161 -45,-45 -102,-70 -161,-75l-47 0c-59,5 -116,30 -161,75 -35,35 -75,96 -75,164z"/>
   <path class="fil1" d="M148 243l-35 1c-5,7 -3,10 -13,14 -5,2 -18,3 -24,5 -5,19 -5,56 0,76l30 3 1 62c22,5 252,5 272,0l3 -46c68,0 37,24 78,13 5,-20 5,-88 0,-108 -41,-11 -9,13 -78,13l-2 -30 -44 -4c21,-12 35,-17 43,-42 8,-27 -1,-55 -15,-68 -13,-13 -39,-23 -65,-16 -28,7 -34,22 -46,44 -17,-126 -184,-87 -161,22 8,37 30,44 57,62z"/>
   <path class="fil0" d="M193 243l106 0c-29,-9 -42,-26 -48,-58 -29,45 -14,29 -58,58z"/>
  </g>
 </g>
</svg>
