<?xml version="1.0" encoding="UTF-8"?>
<!DOCTYPE svg PUBLIC "-//W3C//DTD SVG 1.1//EN" "http://www.w3.org/Graphics/SVG/1.1/DTD/svg11.dtd">
<!-- Creator: CorelDRAW X5 -->
<svg xmlns="http://www.w3.org/2000/svg" xml:space="preserve" width="1.77777in" height="1.77777in" style="shape-rendering:geometricPrecision; text-rendering:geometricPrecision; image-rendering:optimizeQuality; fill-rule:evenodd; clip-rule:evenodd"
viewBox="0 0 504 504"
 xmlns:xlink="http://www.w3.org/1999/xlink">
 <defs>
  <style type="text/css">
   <![CDATA[
    .fil0 {fill:#4F5D73}
    .fil1 {fill:white}
   ]]>
  </style>
 </defs>
 <g id="Layer_x0020_1">
  <metadata id="CorelCorpID_0Corel-Layer"/>
  <g id="_319395624">
   <path class="fil0" d="M0 232c0,85 11,136 73,199 44,44 99,68 156,73l45 0c57,-5 112,-30 156,-73 44,-44 68,-99 73,-156l0 -45c-5,-57 -30,-112 -73,-156 -44,-44 -99,-68 -156,-73l-45 0c-57,5 -112,30 -156,73 -34,34 -73,93 -73,159z"/>
   <path class="fil1" d="M171 129c-59,16 -44,43 -28,79 28,62 68,114 130,145 39,20 71,37 93,1 33,-54 -35,-72 -41,-72 -29,-2 -22,52 -88,-4 -53,-46 -32,-63 -18,-82 21,-28 -23,-74 -49,-67z"/>
  </g>
 </g>
</svg>
