<?xml version="1.0" encoding="utf-8"?>
<!-- Generator: Adobe Illustrator 15.1.0, SVG Export Plug-In . SVG Version: 6.00 Build 0)  -->
<!DOCTYPE svg PUBLIC "-//W3C//DTD SVG 1.1//EN" "http://www.w3.org/Graphics/SVG/1.1/DTD/svg11.dtd">
<svg version="1.1" id="Layer_1" xmlns="http://www.w3.org/2000/svg" xmlns:xlink="http://www.w3.org/1999/xlink" x="0px" y="0px"
	 width="64px" height="64px" viewBox="0 0 64 64" enable-background="new 0 0 64 64" xml:space="preserve">
<g>
	<defs>
		<rect id="SVGID_1_" width="64" height="64"/>
	</defs>
	<clipPath id="SVGID_2_">
		<use xlink:href="#SVGID_1_"  overflow="visible"/>
	</clipPath>
	<g clip-path="url(#SVGID_2_)">
		<defs>
			<rect id="SVGID_3_" width="64" height="64"/>
		</defs>
		<clipPath id="SVGID_4_">
			<use xlink:href="#SVGID_3_"  overflow="visible"/>
		</clipPath>
		<path clip-path="url(#SVGID_4_)" fill="#77B3D4" d="M64,32c0,17.673-14.327,32-32,32S0,49.673,0,32S14.327,0,32,0S64,14.327,64,32
			"/>
		<g opacity="0.2" clip-path="url(#SVGID_4_)">
			<g>
				<defs>
					<rect id="SVGID_5_" x="20" y="11" width="24" height="46"/>
				</defs>
				<clipPath id="SVGID_6_">
					<use xlink:href="#SVGID_5_"  overflow="visible"/>
				</clipPath>
				<path clip-path="url(#SVGID_6_)" fill="#231F20" d="M44,54c0,1.657-1.343,3-3,3H23c-1.657,0-3-1.343-3-3V14c0-1.657,1.343-3,3-3
					h18c1.657,0,3,1.343,3,3V54z"/>
			</g>
		</g>
		<path clip-path="url(#SVGID_4_)" fill="#4F5D73" d="M44,52c0,1.657-1.343,3-3,3H23c-1.657,0-3-1.343-3-3V12c0-1.657,1.343-3,3-3
			h18c1.657,0,3,1.343,3,3V52z"/>
		<g opacity="0.2" clip-path="url(#SVGID_4_)">
			<g>
				<defs>
					<rect id="SVGID_7_" x="27" y="29" width="10" height="10"/>
				</defs>
				<clipPath id="SVGID_8_">
					<use xlink:href="#SVGID_7_"  overflow="visible"/>
				</clipPath>
				<path clip-path="url(#SVGID_8_)" fill="#231F20" d="M37,34c0,2.761-2.239,5-5,5c-2.761,0-5-2.239-5-5c0-2.761,2.239-5,5-5
					C34.761,29,37,31.239,37,34"/>
			</g>
		</g>
		<g opacity="0.2" clip-path="url(#SVGID_4_)">
			<g>
				<defs>
					<rect id="SVGID_9_" x="27" y="16" width="10" height="10"/>
				</defs>
				<clipPath id="SVGID_10_">
					<use xlink:href="#SVGID_9_"  overflow="visible"/>
				</clipPath>
				<path clip-path="url(#SVGID_10_)" fill="#231F20" d="M37,21c0,2.761-2.239,5-5,5c-2.761,0-5-2.239-5-5s2.239-5,5-5
					C34.761,16,37,18.239,37,21"/>
			</g>
		</g>
		<g opacity="0.2" clip-path="url(#SVGID_4_)">
			<g>
				<defs>
					<rect id="SVGID_11_" x="27" y="42" width="10" height="10"/>
				</defs>
				<clipPath id="SVGID_12_">
					<use xlink:href="#SVGID_11_"  overflow="visible"/>
				</clipPath>
				<path clip-path="url(#SVGID_12_)" fill="#231F20" d="M37,47c0,2.761-2.239,5-5,5c-2.761,0-5-2.239-5-5s2.239-5,5-5
					C34.761,42,37,44.239,37,47"/>
			</g>
		</g>
		<path clip-path="url(#SVGID_4_)" fill="#F5CF87" d="M37,32c0,2.761-2.239,5-5,5c-2.761,0-5-2.239-5-5c0-2.761,2.239-5,5-5
			C34.761,27,37,29.239,37,32"/>
		<path clip-path="url(#SVGID_4_)" fill="#C75C5C" d="M37,19c0,2.761-2.239,5-5,5c-2.761,0-5-2.239-5-5s2.239-5,5-5
			C34.761,14,37,16.239,37,19"/>
		<path clip-path="url(#SVGID_4_)" fill="#76C2AF" d="M37,45c0,2.761-2.239,5-5,5c-2.761,0-5-2.239-5-5s2.239-5,5-5
			C34.761,40,37,42.239,37,45"/>
	</g>
</g>
</svg>
