<?xml version="1.0" encoding="utf-8"?>
<!-- Generator: Adobe Illustrator 15.1.0, SVG Export Plug-In . SVG Version: 6.00 Build 0)  -->
<!DOCTYPE svg PUBLIC "-//W3C//DTD SVG 1.1//EN" "http://www.w3.org/Graphics/SVG/1.1/DTD/svg11.dtd">
<svg version="1.1" id="Layer_1" xmlns="http://www.w3.org/2000/svg" xmlns:xlink="http://www.w3.org/1999/xlink" x="0px" y="0px"
	 width="64px" height="64px" viewBox="0 0 64 64" enable-background="new 0 0 64 64" xml:space="preserve">
<g>
	<defs>
		<rect id="SVGID_1_" width="64" height="64"/>
	</defs>
	<clipPath id="SVGID_2_">
		<use xlink:href="#SVGID_1_"  overflow="visible"/>
	</clipPath>
	<g clip-path="url(#SVGID_2_)">
		<defs>
			<rect id="SVGID_3_" width="64" height="64"/>
		</defs>
		<clipPath id="SVGID_4_">
			<use xlink:href="#SVGID_3_"  overflow="visible"/>
		</clipPath>
		<path clip-path="url(#SVGID_4_)" fill="#4F5D73" d="M64,32c0,17.673-14.327,32-32,32S0,49.673,0,32S14.327,0,32,0S64,14.327,64,32
			"/>
		<g opacity="0.2" clip-path="url(#SVGID_4_)">
			<g>
				<defs>
					<rect id="SVGID_5_" x="8" y="10" width="48" height="48"/>
				</defs>
				<clipPath id="SVGID_6_">
					<use xlink:href="#SVGID_5_"  overflow="visible"/>
				</clipPath>
				<path clip-path="url(#SVGID_6_)" fill="#231F20" d="M55.948,32.5C55.204,20.441,45.56,10.795,33.5,10.051V10h-3v0.051
					C18.441,10.795,8.795,20.441,8.051,32.5H8v3h0.051C8.795,47.56,18.441,57.204,30.5,57.948V58h3v-0.052
					C45.56,57.204,55.204,47.56,55.948,35.5H56v-3H55.948z M45.472,32.5c-0.098-2.784-0.458-5.441-1.044-7.888
					c1.835-0.595,3.55-1.315,5.091-2.165c1.935,2.924,3.143,6.358,3.405,10.053H45.472z M38.932,18.5
					c0.687,1.222,1.27,2.583,1.767,4.03c-2.271,0.519-4.693,0.833-7.198,0.924V13.267C35.447,13.902,37.366,15.719,38.932,18.5
					 M30.5,13.267v10.187c-2.506-0.091-4.928-0.405-7.199-0.924c0.497-1.447,1.08-2.808,1.767-4.03
					C26.633,15.719,28.552,13.902,30.5,13.267 M30.5,26.453V32.5h-8.96c0.091-2.477,0.399-4.868,0.924-7.091
					C25.004,26.003,27.71,26.358,30.5,26.453 M30.5,35.5v6.196c-2.776,0.093-5.469,0.445-8,1.033c-0.544-2.264-0.867-4.7-0.96-7.229
					H30.5z M30.5,44.695v10.037c-1.948-0.634-3.867-2.451-5.432-5.233c-0.666-1.183-1.234-2.497-1.721-3.893
					C25.605,45.095,28.012,44.784,30.5,44.695 M33.5,54.732V44.695c2.488,0.091,4.895,0.402,7.151,0.915
					c-0.487,1.395-1.055,2.707-1.72,3.889C37.366,52.281,35.447,54.099,33.5,54.732 M33.5,41.696V35.5h8.959
					c-0.093,2.531-0.416,4.97-0.961,7.234C38.969,42.145,36.275,41.791,33.5,41.696 M33.5,32.5v-6.047
					c2.789-0.095,5.495-0.45,8.036-1.044c0.524,2.223,0.832,4.614,0.923,7.091H33.5z M47.65,20.047
					c-1.239,0.65-2.596,1.215-4.046,1.69c-0.944-2.817-2.203-5.259-3.692-7.177C42.9,15.78,45.534,17.675,47.65,20.047
					 M24.087,14.56c-1.488,1.918-2.748,4.36-3.692,7.177c-1.45-0.475-2.807-1.04-4.046-1.691C18.466,17.675,21.1,15.78,24.087,14.56
					 M14.481,22.448c1.541,0.849,3.256,1.569,5.091,2.164c-0.585,2.447-0.947,5.104-1.043,7.888h-7.453
					C11.339,28.805,12.547,25.371,14.481,22.448 M18.529,35.5c0.098,2.836,0.473,5.538,1.078,8.023
					c-1.821,0.588-3.528,1.295-5.062,2.134c-1.974-2.946-3.203-6.42-3.469-10.157H18.529z M16.44,48.054
					c1.227-0.638,2.567-1.191,3.998-1.658c0.939,2.762,2.184,5.157,3.649,7.045C21.142,52.237,18.542,50.377,16.44,48.054
					 M39.912,53.44c1.464-1.887,2.709-4.279,3.647-7.039c1.43,0.468,2.768,1.021,3.993,1.66
					C45.452,50.381,42.854,52.238,39.912,53.44 M49.449,45.666c-1.532-0.839-3.238-1.548-5.058-2.136
					c0.605-2.487,0.98-5.192,1.08-8.03h7.452C52.657,39.241,51.427,42.72,49.449,45.666"/>
			</g>
		</g>
		<path clip-path="url(#SVGID_4_)" fill="#FFFFFF" d="M32,11c11.579,0,21,9.421,21,21s-9.421,21-21,21s-21-9.421-21-21
			S20.421,11,32,11 M32,8C18.745,8,8,18.745,8,32s10.745,24,24,24s24-10.745,24-24S45.255,8,32,8"/>
		<path clip-path="url(#SVGID_4_)" fill="#FFFFFF" d="M32,11c2.439,0,4.965,2.005,6.931,5.5C41.233,20.592,42.5,26.096,42.5,32
			c0,5.904-1.267,11.408-3.569,15.5C36.965,50.995,34.439,53,32,53c-2.439,0-4.965-2.005-6.931-5.5
			C22.767,43.408,21.5,37.904,21.5,32c0-5.904,1.267-11.408,3.569-15.5C27.035,13.005,29.561,11,32,11 M32,8
			c-7.456,0-13.5,10.745-13.5,24S24.544,56,32,56s13.5-10.745,13.5-24S39.456,8,32,8"/>
		<rect x="30.5" y="8" clip-path="url(#SVGID_4_)" fill="#FFFFFF" width="3" height="48"/>
		<path clip-path="url(#SVGID_4_)" fill="#FFFFFF" d="M32,24.5c-7.425,0-14.447-1.861-19.266-5.106l1.676-2.489
			C18.746,19.825,25.157,21.5,32,21.5c6.836,0,13.244-1.672,17.58-4.588l1.674,2.49C46.436,22.642,39.418,24.5,32,24.5"/>
		<path clip-path="url(#SVGID_4_)" fill="#FFFFFF" d="M49.579,47.244c-4.336-2.92-10.747-4.595-17.59-4.595
			c-6.837,0-13.244,1.673-17.58,4.589l-1.674-2.49c4.818-3.24,11.836-5.099,19.254-5.099c7.425,0,14.447,1.861,19.266,5.106
			L49.579,47.244z"/>
		<rect x="8" y="30.5" clip-path="url(#SVGID_4_)" fill="#FFFFFF" width="48" height="3"/>
	</g>
</g>
</svg>
