<?xml version="1.0" encoding="utf-8"?>
<!-- Generator: Adobe Illustrator 15.1.0, SVG Export Plug-In . SVG Version: 6.00 Build 0)  -->
<!DOCTYPE svg PUBLIC "-//W3C//DTD SVG 1.1//EN" "http://www.w3.org/Graphics/SVG/1.1/DTD/svg11.dtd">
<svg version="1.1" id="Layer_1" xmlns="http://www.w3.org/2000/svg" xmlns:xlink="http://www.w3.org/1999/xlink" x="0px" y="0px"
	 width="64px" height="64px" viewBox="0 0 64 64" enable-background="new 0 0 64 64" xml:space="preserve">
<g>
	<defs>
		<rect id="SVGID_1_" width="64" height="64"/>
	</defs>
	<clipPath id="SVGID_2_">
		<use xlink:href="#SVGID_1_"  overflow="visible"/>
	</clipPath>
	<path clip-path="url(#SVGID_2_)" fill="#FFFFFF" d="M46.575,45.056C46.443,45.029,33.819,42.322,33.038,22h5.523
		c1.472,0,1.883-1.088,0.914-2.417L31.762,8.998c-0.969-1.33-2.555-1.33-3.524,0l-7.713,10.585C19.556,20.912,19.967,22,21.438,22
		H27v31c0,1.656,1.343,3,3,3c1.657,0,3-1.344,3-3V42.161c5.2,7.257,11.966,8.693,12.425,8.783c1.627,0.317,3.202-0.742,3.52-2.368
		C49.262,46.948,48.201,45.373,46.575,45.056"/>
	<path clip-path="url(#SVGID_2_)" fill="#4F5D73" d="M32,0C14.327,0,0,14.327,0,32s14.327,32,32,32s32-14.327,32-32S49.673,0,32,0
		 M48.944,48.575c-0.317,1.626-1.893,2.687-3.521,2.369C44.965,50.854,38.2,49.417,33,42.161V53c0,1.657-1.344,3-3,3
		c-1.657,0-3-1.343-3-3V22h-5.562c-1.471,0-1.882-1.088-0.913-2.418l7.713-10.585c0.969-1.33,2.554-1.33,3.523,0l7.714,10.585
		C40.444,20.912,40.033,22,38.562,22h-5.523c0.781,20.323,13.405,23.03,13.537,23.056C48.201,45.373,49.263,46.949,48.944,48.575"/>
</g>
</svg>
