<?xml version="1.0" encoding="utf-8"?>
<!-- Generator: Adobe Illustrator 15.1.0, SVG Export Plug-In . SVG Version: 6.00 Build 0)  -->
<!DOCTYPE svg PUBLIC "-//W3C//DTD SVG 1.1//EN" "http://www.w3.org/Graphics/SVG/1.1/DTD/svg11.dtd">
<svg version="1.1" id="Layer_1" xmlns="http://www.w3.org/2000/svg" xmlns:xlink="http://www.w3.org/1999/xlink" x="0px" y="0px"
	 width="64px" height="64px" viewBox="0 0 64 64" enable-background="new 0 0 64 64" xml:space="preserve">
<g>
	<defs>
		<rect id="SVGID_1_" width="64" height="64"/>
	</defs>
	<clipPath id="SVGID_2_">
		<use xlink:href="#SVGID_1_"  overflow="visible"/>
	</clipPath>
	<path clip-path="url(#SVGID_2_)" fill="#FFFFFF" d="M42.82,13.121C41.653,11.955,39.349,11,37.698,11H26.302
		c-1.651,0-3.955,0.955-5.122,2.121l-8.059,8.059C11.955,22.347,11,24.651,11,26.302v11.396c0,1.649,0.955,3.955,2.121,5.122
		l8.059,8.059C22.347,52.045,24.651,53,26.302,53h11.396c1.65,0,3.955-0.955,5.122-2.121l8.059-8.059
		C52.045,41.653,53,39.348,53,37.698V26.302c0-1.651-0.955-3.955-2.121-5.122L42.82,13.121z M45,34c0,2.209-1.791,4-4,4H23
		c-2.209,0-4-1.791-4-4v-4c0-2.209,1.791-4,4-4h18c2.209,0,4,1.791,4,4V34z"/>
	<path clip-path="url(#SVGID_2_)" fill="#4F5D73" d="M32,0c-17.673,0-32,14.326-32,32c0,17.673,14.327,32,32,32s32-14.327,32-32
		C64,14.327,49.673,0,32,0 M53,37.698c0,1.65-0.955,3.955-2.121,5.121l-8.059,8.06c-1.167,1.167-3.472,2.122-5.122,2.122H26.302
		c-1.651,0-3.955-0.955-5.122-2.122l-8.059-8.06C11.955,41.653,11,39.349,11,37.698V26.301c0-1.65,0.955-3.955,2.121-5.121
		l8.059-8.059C22.347,11.955,24.651,11,26.302,11h11.396c1.65,0,3.955,0.954,5.122,2.121l8.059,8.059
		C52.045,22.347,53,24.651,53,26.301V37.698z"/>
	<path clip-path="url(#SVGID_2_)" fill="#4F5D73" d="M41,26H23c-2.209,0-4,1.791-4,4v4c0,2.209,1.791,4,4,4h18c2.209,0,4-1.791,4-4
		v-4C45,27.791,43.209,26,41,26"/>
</g>
</svg>
