<?xml version="1.0" encoding="UTF-8"?>
<!DOCTYPE svg PUBLIC "-//W3C//DTD SVG 1.1//EN" "http://www.w3.org/Graphics/SVG/1.1/DTD/svg11.dtd">
<!-- Creator: CorelDRAW X5 -->
<svg xmlns="http://www.w3.org/2000/svg" xml:space="preserve" width="0.885421in" height="0.888882in" style="shape-rendering:geometricPrecision; text-rendering:geometricPrecision; image-rendering:optimizeQuality; fill-rule:evenodd; clip-rule:evenodd"
viewBox="0 0 640 642"
 xmlns:xlink="http://www.w3.org/1999/xlink">
 <defs>
  <style type="text/css">
   <![CDATA[
    .fil1 {fill:#FEFEFE}
    .fil0 {fill:#4F5D73}
   ]]>
  </style>
 </defs>
 <g id="Layer_x0020_1">
  <metadata id="CorelCorpID_0Corel-Layer"/>
  <g id="_499828080">
   <ellipse class="fil0" cx="320" cy="321" rx="320" ry="321"/>
   <path class="fil1" d="M294 119c-1,1 0,1 -4,2 -2,1 -3,1 -5,1 -14,3 -30,16 -37,24 -5,6 -21,26 -22,38l-3 8c-2,12 -4,23 -5,35 -10,5 -29,5 -44,26 -12,17 -15,30 -12,55 1,2 0,-2 2,3 1,2 0,2 1,4 2,8 9,18 14,23 8,9 18,12 22,16 -3,16 -8,21 -4,40 4,24 22,44 46,50 18,5 24,1 41,-1l0 93 53 1 0 -93 2 -3c7,0 15,-6 20,-10 7,-5 11,-11 17,-15 15,4 21,8 40,5 12,-2 22,-8 30,-14 17,-14 25,-32 22,-64 0,0 0,-1 -1,-1 -2,-4 -1,-2 -2,-6 -5,-16 -14,-20 -19,-29 6,-12 23,-13 22,-61 -1,-1 0,0 -2,-3 -1,-3 0,0 -1,-2 0,-2 0,-3 -1,-5 -4,-16 -23,-37 -39,-40 -2,0 -3,-1 -5,-1 -2,-1 -2,-1 -3,-2l-18 -1c-7,-18 -12,-28 -23,-41 -7,-8 -23,-23 -38,-26 -2,0 -2,0 -4,-1 0,0 -2,0 -2,-1 0,0 -1,0 -1,-1 -18,-3 -20,-2 -37,-1z"/>
  </g>
 </g>
</svg>
