<?xml version="1.0" encoding="utf-8"?>
<!-- Generator: Adobe Illustrator 15.1.0, SVG Export Plug-In . SVG Version: 6.00 Build 0)  -->
<!DOCTYPE svg PUBLIC "-//W3C//DTD SVG 1.1//EN" "http://www.w3.org/Graphics/SVG/1.1/DTD/svg11.dtd">
<svg version="1.1" id="Layer_1" xmlns="http://www.w3.org/2000/svg" xmlns:xlink="http://www.w3.org/1999/xlink" x="0px" y="0px"
	 width="64px" height="64px" viewBox="0 0 64 64" enable-background="new 0 0 64 64" xml:space="preserve">
<g>
	<defs>
		<rect id="SVGID_1_" width="64" height="64"/>
	</defs>
	<clipPath id="SVGID_2_">
		<use xlink:href="#SVGID_1_"  overflow="visible"/>
	</clipPath>
	<g clip-path="url(#SVGID_2_)">
		<defs>
			<rect id="SVGID_3_" width="64" height="64"/>
		</defs>
		<clipPath id="SVGID_4_">
			<use xlink:href="#SVGID_3_"  overflow="visible"/>
		</clipPath>
		<path clip-path="url(#SVGID_4_)" fill="#E0995E" d="M64,32c0,17.673-14.327,32-32,32S0,49.673,0,32S14.327,0,32,0S64,14.327,64,32
			"/>
		<g opacity="0.2" clip-path="url(#SVGID_4_)">
			<g>
				<defs>
					<rect id="SVGID_5_" x="12" y="10" width="40" height="42"/>
				</defs>
				<clipPath id="SVGID_6_">
					<use xlink:href="#SVGID_5_"  overflow="visible"/>
				</clipPath>
				<polygon clip-path="url(#SVGID_6_)" fill="#231F20" points="43.281,34 20.719,34 17.722,42 46.277,42 				"/>
				<path clip-path="url(#SVGID_6_)" fill="#231F20" d="M35.896,14.289c-2.143-5.718-5.648-5.718-7.791,0L23.716,26h16.567
					L35.896,14.289z"/>
				<path clip-path="url(#SVGID_6_)" fill="#231F20" d="M14,48c-1.105,0-2,0.895-2,2s0.895,2,2,2h36c1.105,0,2-0.895,2-2
					s-0.895-2-2-2H14z"/>
			</g>
		</g>
		<polygon clip-path="url(#SVGID_4_)" fill="#FFFFFF" points="43.281,32 20.719,32 17.722,40 46.277,40 		"/>
		<path clip-path="url(#SVGID_4_)" fill="#FFFFFF" d="M35.896,12.289c-2.143-5.718-5.648-5.718-7.791,0L23.716,24h16.567
			L35.896,12.289z"/>
		<path clip-path="url(#SVGID_4_)" fill="#FFFFFF" d="M14,46c-1.105,0-2,0.895-2,2s0.895,2,2,2h36c1.105,0,2-0.895,2-2s-0.895-2-2-2
			H14z"/>
	</g>
</g>
</svg>
