<?xml version="1.0" encoding="utf-8"?>
<!-- Generator: Adobe Illustrator 15.1.0, SVG Export Plug-In . SVG Version: 6.00 Build 0)  -->
<!DOCTYPE svg PUBLIC "-//W3C//DTD SVG 1.1//EN" "http://www.w3.org/Graphics/SVG/1.1/DTD/svg11.dtd">
<svg version="1.1" id="Layer_1" xmlns="http://www.w3.org/2000/svg" xmlns:xlink="http://www.w3.org/1999/xlink" x="0px" y="0px"
	 width="64px" height="64px" viewBox="0 0 64 64" enable-background="new 0 0 64 64" xml:space="preserve">
<g>
	<defs>
		<rect id="SVGID_1_" width="64" height="64"/>
	</defs>
	<clipPath id="SVGID_2_">
		<use xlink:href="#SVGID_1_"  overflow="visible"/>
	</clipPath>
	<path clip-path="url(#SVGID_2_)" fill="#FFFFFF" d="M48,30c0-8.837-7.163-16-16-16c-7.498,0-13.773,5.165-15.508,12.126
		C11.687,26.854,8,30.991,8,36c0,5.523,4.477,10,10,10h30c4.418,0,8-3.582,8-8S52.418,30,48,30"/>
	<path clip-path="url(#SVGID_2_)" fill="#4F5D73" d="M32,0C14.327,0,0,14.327,0,32s14.327,32,32,32s32-14.327,32-32S49.673,0,32,0
		 M48,46H18c-5.523,0-10-4.477-10-10c0-5.009,3.687-9.146,8.492-9.874C18.227,19.165,24.502,14,32,14c8.837,0,16,7.163,16,16
		c4.418,0,8,3.582,8,8S52.418,46,48,46"/>
</g>
</svg>
