<?xml version="1.0" encoding="utf-8"?>
<!-- Generator: Adobe Illustrator 15.1.0, SVG Export Plug-In . SVG Version: 6.00 Build 0)  -->
<!DOCTYPE svg PUBLIC "-//W3C//DTD SVG 1.1//EN" "http://www.w3.org/Graphics/SVG/1.1/DTD/svg11.dtd">
<svg version="1.1" id="Layer_1" xmlns="http://www.w3.org/2000/svg" xmlns:xlink="http://www.w3.org/1999/xlink" x="0px" y="0px"
	 width="64px" height="64px" viewBox="0 0 64 64" enable-background="new 0 0 64 64" xml:space="preserve">
<g>
	<defs>
		<rect id="SVGID_1_" width="64" height="64"/>
	</defs>
	<clipPath id="SVGID_2_">
		<use xlink:href="#SVGID_1_"  overflow="visible"/>
	</clipPath>
	<path clip-path="url(#SVGID_2_)" fill="#FFFFFF" d="M22.681,31.91l-6.05-3.491c-0.331-0.189-0.672-0.28-1.015-0.28
		c-0.713,0-1.377,0.383-1.733,1l-3.427,5.934c-0.645,1.118-0.645,3.079,0,4.196l5.206,9.016c0.216-0.604,0.475-1.053,0.525-1.138
		l7.222-12.508C23.958,33.686,23.633,32.462,22.681,31.91"/>
	<path clip-path="url(#SVGID_2_)" fill="#FFFFFF" d="M50.404,29.593h-6.726l-2.816,5.517L42.531,38h9.42
		c0.5,0,1.389-0.111,1.85-0.42c0.051-0.034,0.088-0.066,0.119-0.098c0.012-0.011,0.019-0.021,0.028-0.032
		c0.016-0.02,0.031-0.039,0.042-0.059c0.005-0.01,0.01-0.019,0.014-0.027c0.01-0.024,0.018-0.049,0.021-0.072
		c0-0.001,0-0.001,0-0.002l0.002-0.123c-0.008-0.829-0.182-1.574-0.483-2.093L50.404,29.593z"/>
	<path clip-path="url(#SVGID_2_)" fill="#FFFFFF" d="M41.377,40h-3.881c-1.1,0-1.997,0.896-2,1.996l0.002,6.982
		C35.505,50.109,36.401,51,37.495,51h6.854c1.291,0,2.988-0.98,3.634-2.099l5.207-9.017C52.606,39.99,52.119,40,51.964,40H41.377z"
		/>
	<path clip-path="url(#SVGID_2_)" fill="#FFFFFF" d="M24.844,12.208c-0.149-0.074-0.253-0.09-0.362-0.049
		c-0.018,0.009-0.035,0.017-0.056,0.029l-0.056,0.031c-0.712,0.422-1.27,0.945-1.569,1.465l-3.177,5.459l3.38,5.855h6.158
		l1.692-3.218l-4.723-8.18C25.973,13.32,25.406,12.484,24.844,12.208"/>
	<path clip-path="url(#SVGID_2_)" fill="#FFFFFF" d="M37.819,25.852l6.047-3.493c0.974-0.571,1.298-1.793,0.751-2.74l-3.427-5.935
		c-0.646-1.117-2.344-2.098-3.634-2.098h-10.41c0.416,0.491,0.674,0.939,0.723,1.025l7.221,12.508
		C35.621,26.035,36.893,26.387,37.819,25.852"/>
	<path clip-path="url(#SVGID_2_)" fill="#FFFFFF" d="M22.623,40l-4.71,8.158c-0.163,0.277-0.602,1.185-0.561,1.811
		c0.007,0.104,0.028,0.167,0.051,0.22c0.005,0.011,0.009,0.022,0.015,0.032c0.022,0.038,0.046,0.065,0.068,0.083
		c0.003,0.002,0.005,0.005,0.007,0.007l0.11,0.064C18.323,50.779,19.054,51,19.651,51h6.277l3.4-5.807L25.961,40H22.623z"/>
	<path clip-path="url(#SVGID_2_)" fill="#4F5D73" d="M32-0.366c-17.674,0-32,14.327-32,32s14.326,32,32,32s32-14.327,32-32
		S49.674-0.366,32-0.366 M15.663,48.285l-5.206-9.017c-0.646-1.116-0.646-3.077,0-4.195l3.426-5.934
		c0.356-0.617,1.02-0.999,1.733-0.999c0.344,0,0.684,0.09,1.015,0.279l6.05,3.491c0.952,0.552,1.279,1.775,0.728,2.729
		l-7.222,12.509C16.136,47.232,15.878,47.681,15.663,48.285 M25.927,51h-6.276c-0.597,0-1.328-0.221-2.049-0.625l-0.109-0.064
		c-0.003-0.002-0.005-0.005-0.007-0.007c-0.022-0.018-0.046-0.045-0.068-0.083c-0.006-0.01-0.011-0.021-0.016-0.034
		c-0.023-0.051-0.043-0.115-0.05-0.218c-0.042-0.626,0.398-1.533,0.561-1.811L22.624,40h3.338l3.367,5.193L25.927,51z
		 M29.163,24.998h-6.159l-3.379-5.855l3.176-5.459c0.299-0.52,0.858-1.043,1.57-1.465l0.055-0.031
		c0.021-0.013,0.038-0.02,0.056-0.029c0.11-0.041,0.213-0.025,0.362,0.049c0.563,0.276,1.129,1.112,1.287,1.392l4.724,8.18
		L29.163,24.998z M35.091,25.118L27.87,12.61c-0.049-0.086-0.307-0.534-0.723-1.024h10.41c1.29,0,2.988,0.98,3.634,2.098
		l3.427,5.934c0.547,0.947,0.224,2.169-0.751,2.74l-6.047,3.494C36.893,26.387,35.621,26.034,35.091,25.118 M47.982,48.901
		C47.337,50.019,45.64,51,44.349,51h-6.854c-1.094,0-1.99-0.891-1.997-2.021l-0.002-6.982c0.003-1.102,0.899-1.996,2-1.996h3.881
		h10.587c0.155,0,0.643-0.01,1.225-0.115L47.982,48.901z M54.024,37.29c0,0,0,0.001,0,0.002c-0.004,0.023-0.011,0.047-0.021,0.071
		c-0.003,0.009-0.008,0.019-0.013,0.028c-0.011,0.02-0.025,0.038-0.043,0.059c-0.009,0.011-0.016,0.021-0.028,0.033
		c-0.03,0.03-0.067,0.063-0.119,0.097C53.34,37.889,52.451,38,51.951,38h-9.42l-1.669-2.891l2.816-5.517h6.726l3.139,5.481
		c0.301,0.519,0.476,1.264,0.483,2.093L54.024,37.29z"/>
</g>
</svg>
