<?xml version="1.0" encoding="utf-8"?>
<!-- Generator: Adobe Illustrator 15.1.0, SVG Export Plug-In . SVG Version: 6.00 Build 0)  -->
<!DOCTYPE svg PUBLIC "-//W3C//DTD SVG 1.1//EN" "http://www.w3.org/Graphics/SVG/1.1/DTD/svg11.dtd">
<svg version="1.1" id="Layer_1" xmlns="http://www.w3.org/2000/svg" xmlns:xlink="http://www.w3.org/1999/xlink" x="0px" y="0px"
	 width="64px" height="64px" viewBox="0 0 64 64" enable-background="new 0 0 64 64" xml:space="preserve">
<g>
	<defs>
		<rect id="SVGID_1_" width="64" height="64"/>
	</defs>
	<clipPath id="SVGID_2_">
		<use xlink:href="#SVGID_1_"  overflow="visible"/>
	</clipPath>
	<path clip-path="url(#SVGID_2_)" fill="#FFFFFF" d="M49.515,28H34v-2h5.244C39.66,26,40,25.64,40,25.201V14.799
		C40,14.36,39.66,14,39.244,14H34v-2c0-1.104-0.896-2-2-2c-1.104,0-2,0.896-2,2v2H18.485c-0.416,0-1.004,0.246-1.307,0.547
		l-4.95,4.906c-0.304,0.301-0.304,0.793,0,1.094l4.95,4.906C17.481,25.754,18.069,26,18.485,26H30v2h-5.244
		C24.34,28,24,28.36,24,28.799v10.402C24,39.64,24.34,40,24.756,40H30v16c0,1.104,0.896,2,2,2c1.104,0,2-0.896,2-2V40h15.515
		c0.416,0,1.004-0.246,1.309-0.547l4.949-4.906c0.304-0.301,0.304-0.793,0-1.094l-4.949-4.906C50.519,28.246,49.931,28,49.515,28"/>
	<path clip-path="url(#SVGID_2_)" fill="#4F5D73" d="M32,0C14.327,0,0,14.327,0,32c0,17.673,14.327,32,32,32
		c17.674,0,32-14.327,32-32C63.999,14.327,49.674,0,32,0 M55.772,34.547l-4.95,4.906C50.52,39.754,49.931,40,49.515,40H33.999v16
		c0,1.104-0.895,2-2,2c-1.104,0-2-0.896-2-2V40h-5.243C24.34,40,24,39.641,24,39.2V28.799C24,28.359,24.34,28,24.756,28H30v-2
		H18.485c-0.416,0-1.005-0.246-1.308-0.546l-4.95-4.907c-0.303-0.301-0.303-0.793,0-1.093l4.95-4.907
		C17.48,14.246,18.069,14,18.485,14H30v-2c0-1.104,0.896-2,2-2c1.105,0,2,0.896,2,2v2h5.244c0.416,0,0.756,0.36,0.756,0.799v10.402
		c0,0.44-0.34,0.799-0.756,0.799h-5.244v2h15.516c0.416,0,1.005,0.246,1.308,0.547l4.95,4.907
		C56.075,33.754,56.075,34.245,55.772,34.547"/>
</g>
</svg>
