<?xml version="1.0" encoding="UTF-8"?>
<!DOCTYPE svg PUBLIC "-//W3C//DTD SVG 1.1//EN" "http://www.w3.org/Graphics/SVG/1.1/DTD/svg11.dtd">
<!-- Creator: CorelDRAW X5 -->
<svg xmlns="http://www.w3.org/2000/svg" xml:space="preserve" width="0.777122in" height="3.3738in" style="shape-rendering:geometricPrecision; text-rendering:geometricPrecision; image-rendering:optimizeQuality; fill-rule:evenodd; clip-rule:evenodd"
viewBox="0 0 372 1613"
 xmlns:xlink="http://www.w3.org/1999/xlink">
 <defs>
  <style type="text/css">
   <![CDATA[
    .str0 {stroke:#373435;stroke-width:1.43469}
    .fil1 {fill:none;fill-rule:nonzero}
    .fil0 {fill:#4F5D73;fill-rule:nonzero}
   ]]>
  </style>
 </defs>
 <g id="Layer_x0020_1">
  <metadata id="CorelCorpID_0Corel-Layer"/>
  <path class="fil0" d="M1 828c44,5 74,25 89,61 15,36 23,82 23,139l0 307c0,105 13,177 41,218 27,40 69,61 127,61l0 -50c-47,0 -80,-18 -96,-54 -17,-36 -25,-84 -25,-146l0 -350c0,-66 -11,-116 -33,-150 -22,-33 -48,-50 -79,-50l0 -14c27,0 52,-14 76,-43 24,-29 36,-81 36,-157l0 -349c0,-67 8,-117 25,-150 17,-33 49,-50 96,-50l0 -50c-58,0 -100,20 -127,61 -27,40 -41,113 -41,217l0 307c0,67 -8,114 -26,143 -17,29 -46,47 -86,57l0 43z"/>
  <path id="1" class="fil1 str0" d="M1 828c44,5 74,25 89,61 15,36 23,82 23,139l0 307c0,105 13,177 41,218 27,40 69,61 127,61l0 -50c-47,0 -80,-18 -96,-54 -17,-36 -25,-84 -25,-146l0 -350c0,-66 -11,-116 -33,-150 -22,-33 -48,-50 -79,-50l0 -14c27,0 52,-14 76,-43 24,-29 36,-81 36,-157l0 -349c0,-67 8,-117 25,-150 17,-33 49,-50 96,-50l0 -50c-58,0 -100,20 -127,61 -27,40 -41,113 -41,217l0 307c0,67 -8,114 -26,143 -17,29 -46,47 -86,57l0 43z"/>
 </g>
</svg>
