<svg xmlns="http://www.w3.org/2000/svg" xml:space="preserve" style="shape-rendering:geometricPrecision; text-rendering:geometricPrecision; image-rendering:optimizeQuality; fill-rule:evenodd; clip-rule:evenodd"
viewBox="0 -100 35381 7235"
 xmlns:xlink="http://www.w3.org/1999/xlink">
 <defs>
  <style type="text/css">
   <![CDATA[
    .fil3 {fill:#9CCB48}
    .fil0 {fill:#9CCB48;fill-rule:nonzero}
    .fil2 {fill:#EBE739;fill-rule:nonzero}
    .fil1 {fill:#F89B45;fill-rule:nonzero}
    .fil4 {fill:#4F5D73;fill-rule:nonzero}
   ]]>
  </style>
 </defs>
 <g id="Layer_x0020_1">
  <metadata id="CorelCorpID_0Corel-Layer"/>
  <g id="_LucityClean.cdr">
   <polygon class="fil0" points="16121,5367 16121,5729 16007,5729 16007,5367 15880,5367 15880,5271 16243,5271 16259,5367 "/>
   <polygon class="fil0" points="16724,5729 16704,5424 16617,5730 16511,5730 16423,5424 16404,5729 16305,5729 16338,5271 16485,5271 16574,5586 16664,5271 16806,5271 16840,5729 "/>
   <polygon class="fil0" points="4163,5679 4465,5679 4465,91 4163,91 "/>
   <path class="fil0" d="M4375 5589l0 -5407 -121 0 0 5407 121 0 0 0zm-211 181l0 -91 91 0 -91 0 0 91 -91 0 0 -5770 483 0 0 5770 -393 0 0 0z"/>
   <path class="fil0" d="M7146 5407c-207,222 -496,332 -869,332 -368,0 -652,-108 -853,-325 -201,-216 -302,-519 -302,-906l0 -1948 310 0 0 1948c0,297 65,526 196,687 136,161 352,242 649,242 579,0 869,-310 869,-929l0 -1948 302 0 0 1948c0,383 -101,682 -302,899z"/>
   <path class="fil0" d="M5213 4509c0,373 96,648 278,844l0 0c182,195 436,295 787,296l0 0c355,-1 615,-103 802,-303l0 0c182,-196 277,-469 278,-837l0 -1858 -121 0 0 1858c0,323 -75,580 -242,758l0 0c-166,178 -413,262 -718,261l0 0c-312,1 -561,-86 -720,-275l0 0c-149,-183 -217,-435 -217,-744l0 0 0 -1858 -128 0 0 1858zm1065 1322c-384,1 -699,-116 -920,-354l0 0c-221,-237 -327,-565 -326,-968l0 -2039 491 0 0 2039c0,284 63,491 175,629l0 0c114,135 298,209 580,209l0 0c275,0 462,-72 585,-203l0 0c123,-132 193,-338 193,-635l0 -2039 483 0 0 2039c0,398 -106,724 -326,960l0 0 -66 -62 66 62c-225,242 -543,361 -931,361l0 0c-1,0 -3,0 -4,0l0 0z"/>
   <path class="fil0" d="M9570 5740c-463,0 -848,-154 -1155,-461 -307,-307 -461,-692 -461,-1155 0,-463 154,-848 461,-1155 307,-307 692,-461 1155,-461 398,0 715,91 952,272l0 370 -196 -128 -211 -113c-191,-65 -373,-98 -544,-98 -388,0 -702,121 -944,363 -247,247 -370,564 -370,952 0,383 123,697 370,944 247,247 561,370 944,370 363,0 680,-121 952,-363l0 385c-282,186 -599,279 -952,279z"/>
   <path class="fil0" d="M8351 5343c-324,-323 -488,-736 -487,-1220l0 0c-1,-483 163,-897 487,-1220l0 0c323,-324 737,-488 1220,-487l0 0c411,0 750,94 1007,291l0 0 36 27 0 583 -333 -218c-245,-131 -419,-199 -709,-199l0 0c-369,1 -655,112 -880,336l0 0c-229,230 -343,519 -344,887l0 0c1,364 114,650 344,880l0 0c230,229 516,343 880,343l0 0c342,-1 634,-112 891,-340l0 0 151 -134 0 636 -41 27c-296,196 -633,295 -1001,294l0 -181c319,0 604,-79 861,-238l0 -148c-253,177 -543,267 -861,266l0 0c-402,1 -745,-132 -1008,-397l0 0c-264,-263 -397,-606 -397,-1008l0 0c-1,-406 132,-752 397,-1016l0 0c259,-260 602,-390 1008,-389l0 0c183,0 374,35 573,103l0 0 7 2 222 119 59 39 0 -157c-213,-149 -497,-227 -861,-227l0 0c-444,1 -800,144 -1091,434l0 0c-290,291 -433,648 -434,1091l0 0c1,443 144,800 434,1091l0 0c291,290 648,433 1091,434l0 181c-1,0 -2,0 -4,0l0 0c-481,0 -894,-164 -1216,-487l0 0z"/>
   <polygon class="fil0" points="12976,2870 12976,5679 12666,5679 12666,2870 12244,2870 12244,2560 12666,2560 12666,1193 12976,1193 12976,2560 13339,2560 13339,2870 "/>
   <path class="fil0" d="M12976 2961l0 -91 0 91zm-642 -181l423 0 0 2809 128 0 0 -2809 363 0 0 -128 -363 0 0 -1367 -128 0 0 1367 -423 0 0 128zm242 2991l0 -2809 -423 0 0 -491 423 0 0 -1367 491 0 0 1367 363 0 0 491 -363 0 0 2809 -491 0 0 0z"/>
   <polygon class="fil0" points="14660,7144 14313,7144 15121,5392 13807,2560 14139,2560 15302,5022 16450,2560 16790,2560 "/>
   <path class="fil0" d="M15221 5392l-766 1662 148 0 2045 -4403 -140 0 -1205 2585 -1221 -2585 -133 0 1272 2741 0 0zm-1050 1843l547 0 24 -52 2190 -4713 -540 0 -1091 2339 -1105 -2339 -532 0 1356 2923 -850 1843zm489 -91l0 -91 0 91z"/>
   <path class="fil1" d="M145 3946l-9 0c-75,0 -136,-64 -136,-144l0 0c0,-79 61,-144 136,-144l849 0c82,1 152,-24 152,-121l0 -855 0 -10c0,-79 61,-144 136,-144l0 0c75,0 136,64 136,144l0 929c5,124 -70,241 -159,286l0 0c-87,48 -178,57 -264,57l0 0 -272 0 -567 0 0 0z"/>
   <path class="fil2" d="M2992 3946l9 0c75,0 136,-64 136,-144l0 0c0,-79 -61,-144 -136,-144l-849 0c-83,1 -152,-24 -152,-121l0 -855 0 -10c0,-79 -61,-144 -136,-144l0 0c-75,0 -136,64 -136,144l0 929c-5,124 70,241 159,286l0 0c87,48 178,57 264,57l0 0 272 0 567 0 0 0z"/>
   <path class="fil2" d="M150 4267l-9 0c-75,0 -136,64 -136,144l0 0c0,79 61,144 136,144l849 0c83,-1 152,24 152,121l0 855 0 10c0,79 61,144 136,144l0 0c75,0 136,-64 136,-144l0 -929c5,-124 -70,-241 -159,-286l0 0c-87,-48 -178,-57 -264,-57l0 0 -272 0 -567 0 0 0z"/>
   <path class="fil0" d="M2992 4267l9 0c75,0 136,64 136,144l0 0c0,79 -61,144 -136,144l-849 0c-83,-1 -152,24 -152,121l0 855 0 10c0,79 -61,144 -136,144l0 0c-75,0 -136,-64 -136,-144l0 -929c-5,-124 70,-241 159,-286l0 0c87,-48 178,-57 264,-57l0 0 272 0 567 0 0 0z"/>
   <g>
    <polygon class="fil0" points="11247,5770 11247,5679 11337,5679 11247,5679 11247,5770 11156,5770 11156,2470 11647,2470 11647,5770 11247,5770 "/>
    <polygon class="fil0" points="11466,5589 11466,2651 11337,2651 11337,5589 11466,5589 "/>
    <circle class="fil3" cx="11405" cy="1752" r="336"/>
   </g>
  </g>
  <path class="fil4" d="M17928 3236c112,0 204,31 278,93 74,62 111,143 112,242l2 3 -596 251c53,66 126,98 218,98 92,0 167,-36 227,-108l101 112c-97,100 -212,151 -344,151 -116,0 -215,-38 -298,-115 -83,-77 -124,-178 -124,-304 0,-87 22,-164 65,-230 43,-66 96,-115 160,-146 64,-31 131,-47 201,-47zm-260 426c0,13 1,23 2,29l453 -195c-35,-68 -97,-101 -186,-101 -68,0 -129,24 -185,71 -56,47 -84,113 -84,197z"/>
  <path id="1" class="fil4" d="M18669 3623l0 443 -172 0 0 -818 172 0 0 149c28,-50 66,-90 115,-118 49,-29 101,-43 158,-43 92,0 167,28 224,85 57,56 85,138 85,244l0 501 -172 0 0 -449c0,-151 -63,-226 -188,-226 -59,0 -111,20 -155,59 -44,39 -66,97 -66,173z"/>
  <path id="12" class="fil4" d="M19655 3387l0 415c0,39 10,70 31,93 20,23 49,35 86,35 37,0 72,-18 106,-54l71 121c-60,54 -127,81 -201,81 -73,0 -136,-25 -188,-76 -52,-51 -78,-119 -78,-205l0 -805 172 0 0 257 215 0 0 138 -215 0z"/>
  <path id="123" class="fil4" d="M20457 3236c112,0 204,31 278,93 74,62 111,143 112,242l2 3 -596 251c53,66 126,98 218,98 92,0 167,-36 227,-108l101 112c-97,100 -212,151 -344,151 -116,0 -215,-38 -298,-115 -83,-77 -124,-178 -124,-304 0,-87 22,-164 65,-230 43,-66 96,-115 160,-146 64,-31 131,-47 201,-47zm-260 426c0,13 1,23 2,29l453 -195c-35,-68 -97,-101 -186,-101 -68,0 -129,24 -185,71 -56,47 -84,113 -84,197z"/>
  <path id="1234" class="fil4" d="M21454 3410c-85,0 -149,28 -192,83 -43,55 -65,130 -65,223l0 350 -172 0 0 -818 172 0 0 164c28,-51 65,-93 113,-126 48,-33 98,-50 151,-51l2 174c-3,0 -6,0 -9,0z"/>
  <path id="12345" class="fil4" d="M22074 3236c110,0 203,38 281,114 78,76 117,177 117,303 0,126 -39,229 -116,307 -77,79 -168,118 -271,118 -103,0 -195,-45 -277,-135l0 421 -172 0 0 -1116 172 0 0 143c68,-103 156,-155 266,-155zm-269 423c0,78 24,142 71,191 47,50 105,75 172,75 68,0 127,-25 177,-74 50,-49 75,-113 75,-191 0,-78 -25,-143 -74,-195 -49,-52 -108,-78 -177,-78 -69,0 -127,26 -174,78 -47,52 -71,117 -71,194z"/>
  <path id="123456" class="fil4" d="M23098 3410c-85,0 -149,28 -192,83 -43,55 -65,130 -65,223l0 350 -172 0 0 -818 172 0 0 164c28,-51 65,-93 113,-126 48,-33 98,-50 151,-51l2 174c-3,0 -6,0 -9,0z"/>
  <path id="1234567" class="fil4" d="M23451 4066l-172 0 0 -818 172 0 0 818zm-161 -981c-22,-22 -32,-47 -32,-77 0,-30 11,-55 32,-77 22,-22 47,-32 77,-32 30,0 55,11 77,32 22,22 32,47 32,77 0,30 -11,55 -32,77 -22,22 -47,32 -77,32 -30,0 -55,-11 -77,-32z"/>
  <path id="12345678" class="fil4" d="M24283 3822c0,78 -28,140 -85,187 -56,47 -129,70 -217,70 -59,0 -121,-11 -185,-32 -64,-22 -121,-52 -170,-91l83 -134c95,72 188,108 277,108 39,0 70,-9 92,-27 23,-18 34,-41 34,-68 0,-41 -54,-78 -163,-111 -8,-3 -14,-5 -18,-6 -170,-46 -255,-123 -255,-231 0,-76 29,-137 88,-182 59,-46 136,-68 230,-68 94,0 183,28 267,83l-65 128c-67,-44 -139,-66 -217,-66 -41,0 -74,7 -100,22 -26,15 -38,37 -38,67 0,27 13,46 40,58 18,9 44,18 78,26 33,8 63,16 88,25 26,8 50,17 75,28 24,10 50,25 78,43 55,37 83,94 83,172z"/>
  <path id="123456789" class="fil4" d="M24850 3236c112,0 204,31 278,93 74,62 111,143 112,242l2 3 -596 251c53,66 126,98 218,98 92,0 167,-36 227,-108l101 112c-97,100 -212,151 -344,151 -116,0 -215,-38 -298,-115 -83,-77 -124,-178 -124,-304 0,-87 22,-164 65,-230 43,-66 96,-115 160,-146 64,-31 131,-47 201,-47zm-260 426c0,13 1,23 2,29l453 -195c-35,-68 -97,-101 -186,-101 -68,0 -129,24 -185,71 -56,47 -84,113 -84,197z"/>
  <path id="12345678910" class="fil4" d="M26173 4078c-104,0 -194,-39 -271,-117 -77,-78 -115,-180 -115,-307 0,-127 39,-229 118,-304 79,-76 172,-114 280,-114 108,0 196,51 266,154l0 -141 172 0 0 818 -172 0 0 -134c-33,47 -75,83 -125,108 -51,25 -102,38 -153,38zm-214 -417c0,78 25,142 75,191 50,49 109,74 177,74 68,0 125,-25 172,-75 47,-50 71,-113 71,-191 0,-78 -24,-143 -71,-195 -47,-52 -105,-78 -174,-78 -69,0 -128,26 -177,78 -49,52 -74,118 -74,196z"/>
  <path id="1234567891011" class="fil4" d="M27455 3822c0,78 -28,140 -85,187 -56,47 -129,70 -217,70 -59,0 -121,-11 -185,-32 -64,-22 -121,-52 -170,-91l83 -134c95,72 188,108 277,108 39,0 70,-9 92,-27 23,-18 34,-41 34,-68 0,-41 -54,-78 -163,-111 -8,-3 -14,-5 -18,-6 -170,-46 -255,-123 -255,-231 0,-76 29,-137 88,-182 59,-46 136,-68 230,-68 94,0 183,28 267,83l-65 128c-67,-44 -139,-66 -217,-66 -41,0 -74,7 -100,22 -26,15 -38,37 -38,67 0,27 13,46 40,58 18,9 44,18 78,26 33,8 63,16 88,25 26,8 50,17 75,28 24,10 50,25 78,43 55,37 83,94 83,172z"/>
  <path id="123456789101112" class="fil4" d="M28233 3822c0,78 -28,140 -85,187 -56,47 -129,70 -217,70 -59,0 -121,-11 -185,-32 -64,-22 -121,-52 -170,-91l83 -134c95,72 188,108 277,108 39,0 70,-9 92,-27 23,-18 34,-41 34,-68 0,-41 -54,-78 -163,-111 -8,-3 -14,-5 -18,-6 -170,-46 -255,-123 -255,-231 0,-76 29,-137 88,-182 59,-46 136,-68 230,-68 94,0 183,28 267,83l-65 128c-67,-44 -139,-66 -217,-66 -41,0 -74,7 -100,22 -26,15 -38,37 -38,67 0,27 13,46 40,58 18,9 44,18 78,26 33,8 63,16 88,25 26,8 50,17 75,28 24,10 50,25 78,43 55,37 83,94 83,172z"/>
  <path id="12345678910111213" class="fil4" d="M28800 3236c112,0 204,31 278,93 74,62 111,143 112,242l2 3 -596 251c53,66 126,98 218,98 92,0 167,-36 227,-108l101 112c-97,100 -212,151 -344,151 -116,0 -215,-38 -298,-115 -83,-77 -124,-178 -124,-304 0,-87 22,-164 65,-230 43,-66 96,-115 160,-146 64,-31 131,-47 201,-47zm-260 426c0,13 1,23 2,29l453 -195c-35,-68 -97,-101 -186,-101 -68,0 -129,24 -185,71 -56,47 -84,113 -84,197z"/>
  <path id="1234567891011121314" class="fil4" d="M29533 3387l0 415c0,39 10,70 31,93 20,23 49,35 86,35 37,0 72,-18 106,-54l71 121c-60,54 -127,81 -201,81 -73,0 -136,-25 -188,-76 -52,-51 -78,-119 -78,-205l0 -805 172 0 0 257 215 0 0 138 -215 0z"/>
  <path id="123456789101112131415" class="fil4" d="M17729 5497l0 443 -172 0 0 -818 172 0 0 149c25,-50 62,-90 111,-118 50,-29 103,-43 161,-43 129,0 217,53 263,160 81,-107 182,-160 303,-160 92,0 167,28 224,85 57,56 85,138 85,244l0 501 -172 0 0 -449c0,-151 -63,-226 -188,-226 -58,0 -109,19 -153,56 -44,37 -66,92 -68,164l0 455 -172 0 0 -449c0,-78 -14,-135 -41,-171 -28,-36 -71,-55 -131,-55 -59,0 -111,20 -155,59 -44,39 -66,97 -66,173z"/>
  <path id="12345678910111213141516" class="fil4" d="M19449 5952c-104,0 -194,-39 -271,-117 -77,-78 -115,-180 -115,-307 0,-127 39,-229 118,-304 79,-76 172,-114 280,-114 108,0 196,51 266,154l0 -141 172 0 0 818 -172 0 0 -134c-33,47 -75,83 -125,108 -51,25 -102,38 -153,38zm-214 -417c0,78 25,142 75,191 50,49 109,74 177,74 68,0 125,-25 172,-75 47,-50 71,-113 71,-191 0,-78 -24,-143 -71,-195 -47,-52 -105,-78 -174,-78 -69,0 -128,26 -177,78 -49,52 -74,118 -74,196z"/>
  <path id="1234567891011121314151617" class="fil4" d="M20320 5497l0 443 -172 0 0 -818 172 0 0 149c28,-50 66,-90 115,-118 49,-29 101,-43 158,-43 92,0 167,28 224,85 57,56 85,138 85,244l0 501 -172 0 0 -449c0,-151 -63,-226 -188,-226 -59,0 -111,20 -155,59 -44,39 -66,97 -66,173z"/>
  <path id="123456789101112131415161718" class="fil4" d="M21474 5952c-104,0 -194,-39 -271,-117 -77,-78 -115,-180 -115,-307 0,-127 39,-229 118,-304 79,-76 172,-114 280,-114 108,0 196,51 266,154l0 -141 172 0 0 818 -172 0 0 -134c-33,47 -75,83 -125,108 -51,25 -102,38 -153,38zm-214 -417c0,78 25,142 75,191 50,49 109,74 177,74 68,0 125,-25 172,-75 47,-50 71,-113 71,-191 0,-78 -24,-143 -71,-195 -47,-52 -105,-78 -174,-78 -69,0 -128,26 -177,78 -49,52 -74,118 -74,196z"/>
  <path id="12345678910111213141516171819" class="fil4" d="M22530 6113c152,0 227,-98 227,-294l0 -46c-23,36 -58,66 -107,91 -49,25 -101,38 -156,38 -109,0 -198,-38 -267,-114 -70,-76 -105,-170 -105,-283 0,-113 35,-207 105,-283 70,-76 158,-114 264,-114 106,0 195,37 267,111l0 -98 172 0 0 702c0,142 -37,252 -111,327 -74,76 -170,114 -288,114 -90,0 -169,-22 -237,-65 -68,-43 -118,-105 -148,-184l151 -65c41,108 119,161 235,161zm-238 -614c0,67 21,125 62,174 41,49 97,73 168,73 70,0 127,-24 171,-71 44,-47 65,-106 65,-176 0,-70 -22,-130 -66,-178 -44,-49 -101,-73 -171,-73 -70,0 -125,25 -167,75 -42,50 -62,109 -62,176z"/>
  <path id="1234567891011121314151617181920" class="fil4" d="M23551 5110c112,0 204,31 278,93 74,62 111,143 112,242l2 3 -596 251c53,66 126,98 218,98 92,0 167,-36 227,-108l101 112c-97,100 -212,151 -344,151 -116,0 -215,-38 -298,-115 -83,-77 -124,-178 -124,-304 0,-87 22,-164 65,-230 43,-66 96,-115 160,-146 64,-31 131,-47 201,-47zm-260 426c0,13 1,23 2,29l453 -195c-35,-68 -97,-101 -186,-101 -68,0 -129,24 -185,71 -56,47 -84,113 -84,197z"/>
  <path id="123456789101112131415161718192021" class="fil4" d="M24292 5497l0 443 -172 0 0 -818 172 0 0 149c25,-50 62,-90 111,-118 50,-29 103,-43 161,-43 129,0 217,53 263,160 81,-107 182,-160 303,-160 92,0 167,28 224,85 57,56 85,138 85,244l0 501 -172 0 0 -449c0,-151 -63,-226 -188,-226 -58,0 -109,19 -153,56 -44,37 -66,92 -68,164l0 455 -172 0 0 -449c0,-78 -14,-135 -41,-171 -28,-36 -71,-55 -131,-55 -59,0 -111,20 -155,59 -44,39 -66,97 -66,173z"/>
  <path id="12345678910111213141516171819202122" class="fil4" d="M26050 5110c112,0 204,31 278,93 74,62 111,143 112,242l2 3 -596 251c53,66 126,98 218,98 92,0 167,-36 227,-108l101 112c-97,100 -212,151 -344,151 -116,0 -215,-38 -298,-115 -83,-77 -124,-178 -124,-304 0,-87 22,-164 65,-230 43,-66 96,-115 160,-146 64,-31 131,-47 201,-47zm-260 426c0,13 1,23 2,29l453 -195c-35,-68 -97,-101 -186,-101 -68,0 -129,24 -185,71 -56,47 -84,113 -84,197z"/>
  <path id="1234567891011121314151617181920212223" class="fil4" d="M26791 5497l0 443 -172 0 0 -818 172 0 0 149c28,-50 66,-90 115,-118 49,-29 101,-43 158,-43 92,0 167,28 224,85 57,56 85,138 85,244l0 501 -172 0 0 -449c0,-151 -63,-226 -188,-226 -59,0 -111,20 -155,59 -44,39 -66,97 -66,173z"/>
  <path id="123456789101112131415161718192021222324" class="fil4" d="M27777 5260l0 415c0,39 10,70 31,93 20,23 49,35 86,35 37,0 72,-18 106,-54l71 121c-60,54 -127,81 -201,81 -73,0 -136,-25 -188,-76 -52,-51 -78,-119 -78,-205l0 -805 172 0 0 257 215 0 0 138 -215 0z"/>
  <path id="12345678910111213141516171819202122232425" class="fil4" d="M29211 5695c0,78 -28,140 -85,187 -56,47 -129,70 -217,70 -59,0 -121,-11 -185,-32 -64,-22 -121,-52 -170,-91l83 -134c95,72 188,108 277,108 39,0 70,-9 92,-27 23,-18 34,-41 34,-68 0,-41 -54,-78 -163,-111 -8,-3 -14,-5 -18,-6 -170,-46 -255,-123 -255,-231 0,-76 29,-137 88,-182 59,-46 136,-68 230,-68 94,0 183,28 267,83l-65 128c-67,-44 -139,-66 -217,-66 -41,0 -74,7 -100,22 -26,15 -38,37 -38,67 0,27 13,46 40,58 18,9 44,18 78,26 33,8 63,16 88,25 26,8 50,17 75,28 24,10 50,25 78,43 55,37 83,94 83,172z"/>
  <path id="1234567891011121314151617181920212223242526" class="fil4" d="M29597 5724c49,50 110,75 185,75 75,0 137,-25 185,-75 49,-50 73,-114 73,-193 0,-79 -24,-143 -73,-193 -49,-50 -110,-75 -185,-75 -75,0 -137,25 -185,75 -49,50 -73,114 -73,193 0,79 24,143 73,193zm493 106c-82,81 -184,122 -307,122 -123,0 -225,-41 -307,-122 -82,-81 -123,-181 -123,-299 0,-118 41,-218 123,-299 82,-81 184,-122 307,-122 123,0 225,41 307,122 82,81 123,181 123,299 0,118 -41,218 -123,299z"/>
  <path id="123456789101112131415161718192021222324252627" class="fil4" d="M30580 5116l0 144 215 0 0 138 -215 0 0 541 -172 0 0 -819c0,-88 27,-157 82,-207 55,-50 125,-75 211,-75 86,0 159,27 219,81l-71 138c-38,-40 -85,-60 -141,-60 -85,0 -128,39 -128,117z"/>
  <path id="12345678910111213141516171819202122232425262728" class="fil4" d="M31141 5260l0 415c0,39 10,70 31,93 20,23 49,35 86,35 37,0 72,-18 106,-54l71 121c-60,54 -127,81 -201,81 -73,0 -136,-25 -188,-76 -52,-51 -78,-119 -78,-205l0 -805 172 0 0 257 215 0 0 138 -215 0z"/>
  <polygon id="1234567891011121314151617181920212223242526272829" class="fil4" points="31954,5940 31758,5940 31475,5122 31653,5122 31856,5740 32059,5122 32237,5122 32440,5740 32643,5122 32821,5122 32538,5940 32342,5940 32148,5380 "/>
  <path id="123456789101112131415161718192021222324252627282930" class="fil4" d="M33307 5952c-104,0 -194,-39 -271,-117 -77,-78 -115,-180 -115,-307 0,-127 39,-229 118,-304 79,-76 172,-114 280,-114 108,0 196,51 266,154l0 -141 172 0 0 818 -172 0 0 -134c-33,47 -75,83 -125,108 -51,25 -102,38 -153,38zm-214 -417c0,78 25,142 75,191 50,49 109,74 177,74 68,0 125,-25 172,-75 47,-50 71,-113 71,-191 0,-78 -24,-143 -71,-195 -47,-52 -105,-78 -174,-78 -69,0 -128,26 -177,78 -49,52 -74,118 -74,196z"/>
  <path id="12345678910111213141516171819202122232425262728293031" class="fil4" d="M34435 5283c-85,0 -149,28 -192,83 -43,55 -65,130 -65,223l0 350 -172 0 0 -818 172 0 0 164c28,-51 65,-93 113,-126 48,-33 98,-50 151,-51l2 174c-3,0 -6,0 -9,0z"/>
  <path id="1234567891011121314151617181920212223242526272829303132" class="fil4" d="M34989 5110c112,0 204,31 278,93 74,62 111,143 112,242l2 3 -596 251c53,66 126,98 218,98 92,0 167,-36 227,-108l101 112c-97,100 -212,151 -344,151 -116,0 -215,-38 -298,-115 -83,-77 -124,-178 -124,-304 0,-87 22,-164 65,-230 43,-66 96,-115 160,-146 64,-31 131,-47 201,-47zm-260 426c0,13 1,23 2,29l453 -195c-35,-68 -97,-101 -186,-101 -68,0 -129,24 -185,71 -56,47 -84,113 -84,197z"/>
 </g>
</svg>
