<svg xmlns:dc="http://purl.org/dc/elements/1.1/" xmlns:cc="http://creativecommons.org/ns#" xmlns:rdf="http://www.w3.org/1999/02/22-rdf-syntax-ns#" xmlns:svg="http://www.w3.org/2000/svg" xmlns="http://www.w3.org/2000/svg" viewBox="0 0 576 252" version="1.1"><style>.style0{fill:	#99cc33;fill-rule:	evenodd;}.style1{fill:	#ff9933;fill-rule:	evenodd;}.style2{fill:	#ffff33;fill-rule:	evenodd;}</style><metadata><rdf:RDF><cc:Work rdf:about=""><dc:format>image/svg+xml</dc:format><dc:type rdf:resource="http://purl.org/dc/dcmitype/StillImage"/></cc:Work></rdf:RDF></metadata><defs/><path d="m 144.2 195.59 10.1 0 0 -186.88 -10.1 0 0 186.88 z" class="style0"/><path d="m 141.17 198.62 0 -192.94 16.16 0 0 192.94 -16.16 0 z" class="style0"/><path d="m 243.95 186.5 c -6.91 7.41 -16.58 11.11 -29.04 11.11 -12.29 0 -21.8 -3.62 -28.54 -10.86 -6.74 -7.24 -10.1 -17.34 -10.1 -30.3 l 0 -65.15 10.35 0 0 65.15 c 0 9.94 2.19 17.59 6.57 22.98 4.55 5.39 11.78 8.08 21.72 8.08 19.36 0 29.04 -10.35 29.04 -31.06 l 0 -65.15 10.1 0 0 65.15 c 0 12.8 -3.37 22.82 -10.1 30.05 z" class="style0"/><path d="m 214.91 200.64 c -12.86 0.03 -23.38 -3.87 -30.75 -11.83 l 0 0 c -7.38 -7.92 -10.93 -18.91 -10.91 -32.37 l 0 -68.19 16.41 0 0 68.19 c 0 9.51 2.1 16.42 5.86 21.02 l 0 0 c 3.8 4.5 9.96 6.98 19.4 7 l 0 0 c 9.18 -0.02 15.45 -2.41 19.57 -6.8 l 0 0 c 4.13 -4.4 6.44 -11.31 6.45 -21.22 l 0 -68.19 16.16 0 0 68.19 c 0.02 13.3 -3.55 24.2 -10.91 32.11 l 0 0 0 0 c -7.51 8.09 -18.16 12.08 -31.12 12.08 l 0 0 c -0.04 0 -0.09 0 -0.14 0 l 0 0 z" class="style0"/><path d="m 284.23 184.34 c -10.84 -10.79 -16.32 -24.63 -16.29 -40.78 l 0 0 c -0.03 -16.15 5.45 -29.98 16.29 -40.78 l 0 0 C 295.02 91.95 308.86 86.46 325.01 86.49 l 0 0 c 13.74 -0 25.08 3.14 33.66 9.72 l 0 0 1.19 0.91 0 19.48 -11.15 -7.3 c -8.19 -4.39 -14 -6.64 -23.7 -6.64 l 0 0 c -12.35 0.03 -21.91 3.76 -29.42 11.24 l 0 0 c -7.66 7.69 -11.46 17.34 -11.49 29.67 l 0 0 c 0.03 12.16 3.82 21.72 11.49 29.43 l 0 0 c 7.7 7.67 17.27 11.46 29.42 11.49 l 0 0 c 11.45 -0.02 21.2 -3.74 29.81 -11.35 l 0 0 5.04 -4.48 0 21.25 -1.36 0.9 c -9.91 6.56 -21.17 9.86 -33.49 9.85 l -0.12 0 0 0 c -16.1 -0 -29.89 -5.49 -40.66 -16.3 l 0 0 z" class="style0"/><path d="m 425.52 198.62 0 -93.94 -14.14 0 0 -16.41 14.14 -0.01 0 -45.71 16.41 0 0 45.71 12.12 0 0 16.42 -12.12 0 0 93.94 -16.41 0 0 0 z" class="style0"/><path d="m 495.22 244.58 -11.62 0 27.02 -58.59 -43.94 -94.7 11.11 0 38.89 82.33 38.38 -82.33 11.36 0 -71.22 153.29 z" class="style0"/><path d="m 495.21 244.58 0 -3.03 0 3.03 z" class="style0"/><path d="m 478.87 247.61 18.28 0 0.82 -1.75 73.21 -157.59 -18.05 0 -36.47 78.22 -36.95 -78.22 -17.78 0 45.35 97.73 -28.42 61.61 z" class="style0"/><path d="m 9.84 137.65 -0.3 0 c -2.51 0 -4.54 -2.15 -4.54 -4.8 l 0 0 c 0 -2.65 2.03 -4.8 4.54 -4.8 l 28.38 0 c 2.76 0.03 5.08 -0.81 5.07 -4.05 l 0 -28.58 0 -0.32 c 0 -2.65 2.03 -4.8 4.54 -4.8 l 0 0 c 2.51 0 4.55 2.15 4.55 4.8 l 0 31.07 c 0.16 4.16 -2.35 8.07 -5.33 9.56 l 0 0 c -2.92 1.61 -5.94 1.89 -8.84 1.92 l 0 0 -9.11 0 -18.97 -0 0 0 z" class="style1"/><path d="m 105.04 137.65 0.3 0 c 2.51 0 4.54 -2.15 4.54 -4.8 l 0 0 c 0 -2.65 -2.03 -4.8 -4.54 -4.8 l -28.38 0 c -2.76 0.03 -5.08 -0.81 -5.07 -4.05 l -0 -28.58 0 -0.32 c 0 -2.65 -2.03 -4.8 -4.54 -4.8 l 0 0 c -2.51 0 -4.55 2.15 -4.55 4.8 l 0 31.07 c -0.16 4.16 2.35 8.07 5.33 9.56 l 0 0 c 2.92 1.61 5.94 1.89 8.84 1.92 l 0 0 9.11 0 18.97 -0 0 0 z" class="style2"/><path d="m 10.01 148.37 -0.3 -0 c -2.51 0 -4.54 2.15 -4.54 4.8 l 0 0 c 0 2.65 2.03 4.8 4.54 4.8 l 28.38 0 c 2.76 -0.03 5.08 0.81 5.07 4.05 l 0 28.58 0 0.32 c 0 2.65 2.03 4.8 4.54 4.8 l 0 0 c 2.51 0 4.55 -2.15 4.55 -4.8 l 0 -31.07 c 0.16 -4.16 -2.35 -8.07 -5.33 -9.56 l 0 0 c -2.92 -1.61 -5.94 -1.89 -8.84 -1.92 l 0 0 -9.11 -0 -18.97 0 0 0 z" class="style2"/><path d="m 105.04 148.37 0.3 -0 c 2.51 0 4.54 2.15 4.54 4.8 l 0 0 c 0 2.65 -2.03 4.8 -4.54 4.8 l -28.38 0 c -2.76 -0.03 -5.08 0.81 -5.07 4.05 l -0 28.58 0 0.32 c 0 2.65 -2.03 4.8 -4.54 4.8 l 0 0 c -2.51 0 -4.55 -2.15 -4.55 -4.8 l 0 -31.07 c -0.16 -4.16 2.35 -8.07 5.33 -9.56 l 0 0 c 2.92 -1.61 5.94 -1.89 8.84 -1.92 l 0 0 9.11 -0 18.97 0 0 0 z" class="style0"/><path d="m 378.04 198.62 0 -110.36 16.41 0 0 110.36 c -19.29 0 -7.93 0 -16.41 0 z" class="style0"/><path d="M 386.37 53.02 A 11.25 11.25 0 0 1 397.62 64.27 11.25 11.25 0 1 1 386.37 53.02 Z" class="style0"/></svg>