<?xml version="1.0" encoding="UTF-8"?>
<!DOCTYPE svg PUBLIC "-//W3C//DTD SVG 1.1//EN" "http://www.w3.org/Graphics/SVG/1.1/DTD/svg11.dtd">
<!-- Creator: CorelDRAW X5 -->
<svg xmlns="http://www.w3.org/2000/svg" xml:space="preserve"  preserveAspectRatio="none"
viewBox="0 0 1470 1260"
 xmlns:xlink="http://www.w3.org/1999/xlink">
 <defs>
  <style type="text/css">
   <![CDATA[
    .str0 {stroke:#ffffff;stroke-width:40}
    .fil0 {fill:#ff9933}
   ]]>
  </style>
 </defs>
 <g id="Layer_x0020_1">
  <metadata id="CorelCorpID_0Corel-Layer"/>
  <g id="_499816056">
   <path class="fil0 str0" d="M520 1041c3,37 -36,147 -43,193 16,-6 36,-21 50,-30l244 -154c49,-31 338,29 457,-20 45,-18 70,-34 98,-61 34,-33 45,-48 54,-107 24,-175 58,-352 87,-527 8,-49 20,-84 5,-132 -12,-36 -38,-74 -62,-95 -91,-80 -127,-62 -259,-54l-921 60c-94,6 -164,65 -178,143 -8,42 46,475 55,553 9,81 3,168 104,208 78,31 248,0 310,21z"/>
  </g>
 </g>
</svg>
