<?xml version="1.0" encoding="UTF-8"?>
<!DOCTYPE svg PUBLIC "-//W3C//DTD SVG 1.1//EN" "http://www.w3.org/Graphics/SVG/1.1/DTD/svg11.dtd">
<!-- Creator: CorelDRAW X5 -->
<svg xmlns="http://www.w3.org/2000/svg" xml:space="preserve" width="4.30859in" height="0.929189in" style="shape-rendering:geometricPrecision; text-rendering:geometricPrecision; image-rendering:optimizeQuality; fill-rule:evenodd; clip-rule:evenodd"
viewBox="0 0 93843 20238"
 xmlns:xlink="http://www.w3.org/1999/xlink">
 <defs>
  <style type="text/css">
   <![CDATA[
    .str0 {stroke:#9CCB48;stroke-width:605.052}
    .fil3 {fill:none}
    .fil2 {fill:#9CCB48}
    .fil1 {fill:#9CCB48;fill-rule:nonzero}
    .fil0 {fill:#4F5D73;fill-rule:nonzero}
   ]]>
  </style>
 </defs>
 <g id="Layer_x0020_1">
  <metadata id="CorelCorpID_0Corel-Layer"/>
  <g id="_451836560">
   <path class="fil0" d="M40234 16634c-28,0 -127,-5 -298,-14 -171,-9 -373,-49 -604,-118 -231,-69 -477,-178 -736,-326 -259,-148 -500,-361 -722,-639 -222,-278 -405,-627 -548,-1048 -143,-421 -215,-942 -215,-1562l0 -3471 1694 0 0 3471c0,204 19,412 56,625 37,213 106,407 208,583 102,176 245,322 430,437 185,116 430,174 736,174 305,0 551,-58 736,-174 185,-116 329,-262 430,-437 102,-176 171,-370 208,-583 37,-213 56,-421 56,-625l0 -3471 1694 0 0 3471c0,620 -72,1141 -215,1562 -143,421 -326,771 -548,1048 -222,278 -463,491 -722,639 -259,148 -504,257 -736,326 -231,69 -433,109 -604,118 -171,9 -271,14 -298,14z"/>
   <path id="1" class="fil0" d="M47315 9276c28,0 127,5 298,14 171,9 372,49 604,118 231,69 477,178 736,326 259,148 500,361 722,639 222,278 405,627 548,1048 143,421 215,942 215,1562l0 3513 -1694 0 0 -3513c0,-204 -19,-412 -56,-625 -37,-213 -106,-407 -208,-583 -102,-176 -245,-322 -430,-437 -185,-116 -430,-174 -736,-174 -305,0 -551,58 -736,174 -185,116 -329,261 -430,437 -102,176 -171,370 -208,583 -37,213 -56,421 -56,625l0 3513 -1694 0 0 -3513c0,-620 72,-1141 215,-1562 143,-421 326,-771 548,-1048 222,-278 463,-491 722,-639 259,-148 504,-257 736,-326 231,-69 430,-109 597,-118 167,-9 268,-14 305,-14z"/>
   <path id="12" class="fil0" d="M53021 9456l0 7039 -1694 0 0 -7039 1694 0zm-1694 -1569c0,-204 2,-356 7,-458 5,-102 32,-176 83,-222 51,-46 134,-72 250,-76 116,-5 285,-7 507,-7 222,0 391,2 507,7 116,5 199,30 250,76 51,46 79,120 83,222 5,102 7,255 7,458 0,204 -2,356 -7,458 -5,102 -32,176 -83,222 -51,46 -134,72 -250,76 -116,5 -285,7 -507,7 -222,0 -391,-2 -507,-7 -116,-5 -199,-30 -250,-76 -51,-46 -79,-120 -83,-222 -5,-102 -7,-255 -7,-458z"/>
   <polygon id="123" class="fil0" points="57200,16495 56061,16495 53771,9456 55478,9456 57200,14718 58921,9456 60629,9456 58338,16495 "/>
   <path id="1234" class="fil0" d="M67863 12080c19,139 35,282 49,430 14,148 21,305 21,472l0 250 -4859 0c19,157 42,317 69,479 28,162 74,322 139,479 102,241 259,454 472,639 213,185 509,278 889,278 380,0 676,-93 889,-278 213,-185 370,-398 472,-639l1805 0c-74,324 -178,606 -312,847 -134,241 -282,449 -444,625 -162,176 -335,322 -521,437 -185,116 -366,211 -542,285 -426,167 -875,250 -1347,250 -620,-9 -1171,-139 -1652,-389 -204,-111 -405,-252 -604,-424 -199,-171 -375,-386 -528,-646 -153,-259 -275,-569 -368,-930 -93,-361 -139,-782 -139,-1263 0,-481 46,-902 139,-1263 93,-361 215,-673 368,-937 153,-264 329,-484 528,-660 199,-176 400,-319 604,-430 481,-259 1032,-398 1652,-416 509,19 986,125 1430,319 185,83 372,192 562,326 190,134 366,301 528,500 162,199 305,435 430,708 125,273 215,590 271,951zm-1749 0c-46,-148 -104,-296 -174,-444 -69,-148 -164,-282 -285,-403 -120,-120 -264,-215 -430,-285 -167,-69 -361,-104 -583,-104 -222,0 -416,35 -583,104 -167,69 -310,164 -430,285 -120,120 -218,255 -292,403 -74,148 -130,296 -167,444l2943 0z"/>
   <path id="12345" class="fil0" d="M68807 11511c0,-481 102,-858 305,-1131 204,-273 426,-479 666,-618 287,-167 611,-268 972,-305l1944 0 0 1680 -1305 0c-185,0 -336,32 -451,97 -116,65 -206,134 -271,208 -74,93 -125,194 -153,305l0 4748 -1708 0 0 -4984z"/>
   <path class="fil0" d="M81862 9456l0 7039 -1694 0 0 -7039 1694 0zm-1694 -1569c0,-204 2,-356 7,-458 5,-102 32,-176 83,-222 51,-46 134,-72 250,-76 116,-5 285,-7 507,-7 222,0 391,2 507,7 116,5 199,30 250,76 51,46 79,120 83,222 5,102 7,255 7,458 0,204 -2,356 -7,458 -5,102 -32,176 -83,222 -51,46 -134,72 -250,76 -116,5 -285,7 -507,7 -222,0 -391,-2 -507,-7 -116,-5 -199,-30 -250,-76 -51,-46 -79,-120 -83,-222 -5,-102 -7,-255 -7,-458z"/>
   <path id="1" class="fil0" d="M84500 11109l0 3096c28,111 79,213 153,305 65,74 155,143 271,208 116,65 266,97 451,97l1055 0 0 1680 -1694 0c-361,-37 -685,-139 -972,-305 -241,-139 -460,-345 -660,-618 -199,-273 -298,-650 -298,-1131l0 -6872 1694 0 0 1888 1597 0 0 1652 -1597 0z"/>
   <path id="12" class="fil0" d="M91330 17453c-102,324 -255,576 -458,757 -204,180 -412,317 -625,410 -241,102 -500,171 -777,208l-2194 0 0 -1624 1416 0c268,0 454,-37 555,-111 102,-74 167,-157 194,-250 28,-102 19,-222 -28,-361l-2263 -7025 1708 0 1638 5442 1638 -5442 1708 0 -2513 7997z"/>
   <polygon class="fil1" points="257,16088 1112,16088 1112,257 257,257 "/>
   <path class="fil1" d="M856 15831l0 -15318 -343 0 0 15318 343 0 0 0zm-599 513l0 -257 256 0 -256 0 0 257 -257 0 0 -16344 1369 0 0 16344 -1112 0 0 0z"/>
   <path class="fil1" d="M8707 15318c-585,628 -1405,941 -2460,941 -1041,0 -1847,-306 -2418,-920 -571,-613 -856,-1469 -856,-2567l0 -5520 877 0 0 5520c0,842 185,1491 556,1947 385,457 998,685 1840,685 1640,0 2460,-877 2460,-2631l0 -5520 856 0 0 5520c0,1084 -285,1933 -856,2546z"/>
   <path class="fil1" d="M3230 12772c1,1056 271,1837 787,2392l0 0c516,553 1236,836 2230,838l0 0c1007,-2 1741,-292 2272,-859l0 0c516,-556 786,-1330 787,-2371l0 -5263 -342 0 0 5263c0,914 -214,1644 -684,2148l0 0c-471,505 -1170,741 -2033,739l0 0c-883,2 -1588,-244 -2039,-779l0 0c-421,-519 -614,-1232 -614,-2109l0 0 0 -5263 -363 0 0 5263zm3017 3744c-1089,2 -1981,-328 -2605,-1002l0 0c-625,-671 -926,-1602 -925,-2742l0 -5776 1390 0 0 5776c0,806 178,1391 496,1781l0 0c322,381 844,592 1644,593l0 0c778,-1 1308,-204 1657,-576l0 0c350,-373 546,-958 546,-1798l0 -5776 1369 0 0 5776c1,1126 -300,2050 -925,2720l0 0 -188 -175 188 175c-636,685 -1538,1023 -2636,1023l0 0c-4,0 -8,0 -12,0l0 0z"/>
   <path class="fil1" d="M15574 16259c-1312,0 -2403,-435 -3273,-1305 -870,-870 -1305,-1961 -1305,-3273 0,-1312 435,-2403 1305,-3273 870,-870 1961,-1305 3273,-1305 1126,0 2025,257 2696,770l0 1048 -556 -364 -599 -321c-542,-185 -1056,-278 -1540,-278 -1098,0 -1990,342 -2674,1027 -699,699 -1048,1598 -1048,2696 0,1084 349,1976 1048,2674 699,699 1590,1048 2674,1048 1027,0 1925,-342 2696,-1027l0 1091c-799,528 -1697,792 -2696,792z"/>
   <path class="fil1" d="M12119 15135c-918,-914 -1383,-2086 -1380,-3455l0 0c-3,-1368 462,-2540 1380,-3455l0 0c915,-918 2086,-1383 3455,-1380l0 0c1164,0 2124,266 2851,823l0 0 101 77 0 1650 -945 -618c-694,-372 -1186,-563 -2008,-563l0 0c-1046,2 -1856,318 -2493,952l0 0c-649,652 -971,1469 -973,2514l0 0c3,1030 324,1840 973,2493l0 0c652,649 1463,971 2493,973l0 0c970,-2 1796,-317 2525,-962l0 0 427 -380 0 1801 -115 76c-840,556 -1794,835 -2837,834l0 -513c905,-1 1710,-225 2439,-675l0 -421c-717,500 -1539,755 -2439,754l0 0c-1138,2 -2111,-375 -2856,-1124l0 0c-748,-745 -1126,-1718 -1124,-2856l0 0c-2,-1152 375,-2131 1124,-2877l0 0c733,-736 1705,-1104 2856,-1102l0 0c518,0 1059,99 1623,292l0 0 19 7 628 337 168 109 0 -443c-604,-422 -1408,-643 -2439,-643l0 0c-1257,2 -2267,408 -3092,1230l0 0c-822,826 -1227,1836 -1230,3092l0 0c3,1256 408,2267 1230,3092l0 0c825,822 1835,1227 3092,1230l0 513c-3,0 -7,0 -10,0l0 0c-1364,0 -2532,-465 -3444,-1380l0 0z"/>
   <polygon class="fil1" points="25222,8130 25222,16088 24345,16088 24345,8130 23147,8130 23147,7252 24345,7252 24345,3380 25222,3380 25222,7252 26249,7252 26249,8130 "/>
   <path class="fil1" d="M25221 8386l0 -257 0 257zm-1818 -514l1198 0 0 7958 364 0 0 -7958 1027 0 0 -364 -1027 0 0 -3872 -364 0 0 3872 -1198 0 0 364zm685 8472l0 -7958 -1198 0 0 -1390 1198 0 0 -3872 1390 0 0 3872 1027 0 0 1391 -1027 0 0 7958 -1390 0 0 0z"/>
   <polygon class="fil1" points="29993,20238 29008,20238 31298,15275 27575,7252 28516,7252 31811,14227 35063,7252 36026,7252 "/>
   <g>
    <polygon class="fil1" points="20323,16345 20323,16088 20579,16088 20323,16088 20323,16345 20066,16345 20066,6996 21456,6996 21456,16345 20323,16345 "/>
    <polygon class="fil1" points="20943,15831 20943,7509 20579,7509 20579,15831 20943,15831 "/>
    <circle class="fil2" cx="20772" cy="4963" r="953"/>
   </g>
   <g>
    <g>
     <path class="fil1" d="M76496 15196c-850,0 -1556,-282 -2119,-845 -563,-563 -845,-1269 -845,-2119 0,-849 282,-1556 845,-2119 563,-563 1269,-845 2119,-845 729,0 1311,166 1745,499l0 679 -360 -235 -388 -208c-351,-120 -683,-180 -997,-180 -711,0 -1288,222 -1731,665 -453,453 -679,1034 -679,1745 0,702 226,1279 679,1731 452,453 1029,679 1731,679 665,0 1246,-222 1745,-665l0 706c-517,342 -1099,512 -1745,512z"/>
     <path class="fil1" d="M74259 14468c-595,-592 -895,-1350 -894,-2236l0 0c-2,-886 299,-1644 893,-2237l0 0c592,-594 1351,-895 2237,-894l0 0c753,0 1375,172 1846,533l0 0 65 50 0 1068 -611 -400c-449,-241 -768,-364 -1300,-364l0 0c-677,2 -1202,206 -1614,616l0 0c-420,422 -628,951 -630,1627l0 0c2,667 209,1191 630,1614l0 0c422,420 947,628 1614,630l0 0c628,-1 1163,-205 1635,-623l0 0 277 -246 0 1166 -75 49c-544,360 -1161,540 -1837,540l0 -332c586,-1 1107,-145 1579,-437l0 -272c-464,324 -996,489 -1579,488l0 0c-737,1 -1366,-243 -1849,-728l0 0c-484,-482 -729,-1112 -728,-1849l0 0c-1,-746 243,-1380 728,-1863l0 0c475,-476 1104,-715 1849,-713l0 0c335,0 686,64 1051,189l0 0 12 4 407 218 108 71 0 -287c-391,-273 -912,-416 -1579,-416l0 0c-814,2 -1467,264 -2001,796l0 0c-532,535 -794,1188 -796,2002l0 0c2,813 264,1467 796,2001l0 0c534,532 1188,794 2001,796l0 332c-2,0 -5,0 -7,0l0 0c-883,0 -1639,-301 -2230,-894l0 0z"/>
    </g>
    <line class="fil3 str0" x1="74062" y1="16539" x2="77711" y2= "16539" />
   </g>
  </g>
 </g>
</svg>
