<?xml version="1.0" encoding="UTF-8"?>
<!DOCTYPE svg PUBLIC "-//W3C//DTD SVG 1.1//EN" "http://www.w3.org/Graphics/SVG/1.1/DTD/svg11.dtd">
<!-- Creator: CorelDRAW X5 -->
<svg xmlns="http://www.w3.org/2000/svg" xml:space="preserve" width="1.77777in" height="1.77777in" style="shape-rendering:geometricPrecision; text-rendering:geometricPrecision; image-rendering:optimizeQuality; fill-rule:evenodd; clip-rule:evenodd"
viewBox="0 0 780 780"
 xmlns:xlink="http://www.w3.org/1999/xlink">
 <defs>
  <style type="text/css">
   <![CDATA[
    .fil0 {fill:#4F5D73}
    .fil1 {fill:white}
   ]]>
  </style>
 </defs>
 <g id="Layer_x0020_1">
  <metadata id="CorelCorpID_0Corel-Layer"/>
  <g id="_306126888">
   <path class="fil0" d="M0 359c0,132 17,211 113,307 68,68 153,105 241,113l70 0c88,-8 174,-46 241,-113 68,-68 105,-153 113,-241l0 -70c-8,-88 -46,-174 -113,-241 -68,-68 -153,-105 -241,-113l-70 0c-88,8 -174,46 -241,113 -53,53 -113,144 -113,246z"/>
   <path class="fil1" d="M139 317c-12,41 74,91 96,119 27,36 -29,119 -5,180 61,15 121,-60 161,-60 40,0 100,75 161,60 14,-34 6,-47 -1,-88 -5,-30 -19,-72 -4,-93 22,-29 107,-76 96,-119 -30,-43 -114,-19 -158,-43 -43,-38 -68,-232 -139,-88 -9,19 -17,33 -26,53 -13,30 -9,36 -44,42 -44,7 -114,2 -136,36z"/>
  </g>
 </g>
</svg>
