<?xml version="1.0" encoding="UTF-8"?>
<!DOCTYPE svg PUBLIC "-//W3C//DTD SVG 1.1//EN" "http://www.w3.org/Graphics/SVG/1.1/DTD/svg11.dtd">
<!-- Creator: CorelDRAW X5 -->
<svg xmlns="http://www.w3.org/2000/svg" xml:space="preserve" width="0.777122in" height="3.3738in" style="shape-rendering:geometricPrecision; text-rendering:geometricPrecision; image-rendering:optimizeQuality; fill-rule:evenodd; clip-rule:evenodd"
viewBox="0 0 68 297"
 xmlns:xlink="http://www.w3.org/1999/xlink">
 <defs>
  <style type="text/css">
   <![CDATA[
    .str0 {stroke:#373435;stroke-width:0.263966}
    .fil1 {fill:none;fill-rule:nonzero}
    .fil0 {fill:#4F5D73;fill-rule:nonzero}
   ]]>
  </style>
 </defs>
 <g id="Layer_x0020_1">
  <metadata id="CorelCorpID_0Corel-Layer"/>
  <path class="fil0" d="M68 152c-8,1 -14,5 -16,11 -3,7 -4,15 -4,26l0 56c0,19 -2,33 -7,40 -5,7 -13,11 -23,11l0 -9c9,0 15,-3 18,-10 3,-7 5,-16 5,-27l0 -64c0,-12 2,-21 6,-28 4,-6 9,-9 14,-9l0 -3c-5,0 -10,-3 -14,-8 -4,-5 -7,-15 -7,-29l0 -64c0,-12 -2,-21 -5,-28 -3,-6 -9,-9 -18,-9l0 -9c11,0 18,4 23,11 5,7 7,21 7,40l0 56c0,12 2,21 5,26 3,5 8,9 16,10l0 8z"/>
  <path id="1" class="fil1 str0" d="M68 152c-8,1 -14,5 -16,11 -3,7 -4,15 -4,26l0 56c0,19 -2,33 -7,40 -5,7 -13,11 -23,11l0 -9c9,0 15,-3 18,-10 3,-7 5,-16 5,-27l0 -64c0,-12 2,-21 6,-28 4,-6 9,-9 14,-9l0 -3c-5,0 -10,-3 -14,-8 -4,-5 -7,-15 -7,-29l0 -64c0,-12 -2,-21 -5,-28 -3,-6 -9,-9 -18,-9l0 -9c11,0 18,4 23,11 5,7 7,21 7,40l0 56c0,12 2,21 5,26 3,5 8,9 16,10l0 8z"/>
 </g>
</svg>
