<svg xmlns:dc="http://purl.org/dc/elements/1.1/" xmlns:cc="http://creativecommons.org/ns#" xmlns:rdf="http://www.w3.org/1999/02/22-rdf-syntax-ns#"
     xmlns:svg="http://www.w3.org/2000/svg" xmlns="http://www.w3.org/2000/svg" viewBox="0 -100 21206 5601" version="1.1">
 <defs>
  <style type="text/css">
   <![CDATA[
    .fil3 {fill:#9CCB48}
    .fil0 {fill:#9CCB48;fill-rule:nonzero}
    .fil2 {fill:#EBE739;fill-rule:nonzero}
    .fil1 {fill:#F89B45;fill-rule:nonzero}
    .fil4 {fill:#4F5D73;fill-rule:nonzero}
   ]]>
  </style>
 </defs>
 <g id="Layer_x0020_1">
  <metadata id="CorelCorpID_0Corel-Layer"/>
  <g id="_LucityClean.cdr">
   <polygon class="fil0" points="12481,4155 12481,4436 12392,4436 12392,4155 12294,4155 12294,4081 12575,4081 12587,4155 "/>
   <polygon class="fil0" points="12947,4436 12932,4199 12865,4436 12782,4436 12715,4199 12699,4436 12623,4436 12648,4081 12762,4081 12831,4325 12901,4081 13011,4081 13037,4436 "/>
   <polygon class="fil0" points="3223,4397 3457,4397 3457,70 3223,70 "/>
   <path class="fil0" d="M3387 4327l0 -4186 -94 0 0 4186 94 0 0 0zm-164 140l0 -70 70 0 -70 0 0 70 -70 0 0 -4467 374 0 0 4467 -304 0 0 0z"/>
   <path class="fil0" d="M5532 4186c-160,172 -384,257 -672,257 -285,0 -505,-84 -661,-251 -156,-168 -234,-401 -234,-702l0 -1508 240 0 0 1508c0,230 51,407 152,532 105,125 273,187 503,187 448,0 672,-240 672,-719l0 -1508 234 0 0 1508c0,296 -78,528 -234,696z"/>
   <path class="fil0" d="M4036 3491c0,289 74,502 215,654l0 0c141,151 338,228 609,229l0 0c275,-1 476,-80 621,-235l0 0c141,-152 215,-363 215,-648l0 -1438 -94 0 0 1438c0,250 -58,449 -187,587l0 0c-129,138 -320,203 -556,202l0 0c-241,1 -434,-67 -557,-213l0 0c-115,-142 -168,-337 -168,-576l0 0 0 -1438 -99 0 0 1438zm824 1023c-298,1 -541,-90 -712,-274l0 0c-171,-183 -253,-438 -253,-749l0 -1579 380 0 0 1579c0,220 49,380 136,487l0 0c88,104 231,162 449,162l0 0c213,0 358,-56 453,-158l0 0c96,-102 149,-262 149,-491l0 -1579 374 0 0 1579c0,308 -82,560 -253,743l0 0 -51 -48 51 48c-174,187 -420,280 -721,280l0 0c-1,0 -2,0 -3,0l0 0z"/>
   <path class="fil0" d="M7409 4444c-359,0 -657,-119 -895,-357 -238,-238 -357,-536 -357,-895 0,-359 119,-657 357,-895 238,-238 536,-357 895,-357 308,0 553,70 737,210l0 286 -152 -99 -164 -88c-148,-51 -289,-76 -421,-76 -300,0 -544,94 -731,281 -191,191 -286,437 -286,737 0,296 95,540 286,731 191,191 435,286 731,286 281,0 526,-94 737,-281l0 298c-218,144 -464,216 -737,216z"/>
   <path class="fil0" d="M6465 4136c-251,-250 -378,-570 -377,-944l0 0c-1,-374 126,-694 377,-944l0 0c250,-251 570,-378 944,-377l0 0c318,0 581,73 779,225l0 0 28 21 0 451 -258 -169c-190,-102 -324,-154 -549,-154l0 0c-286,1 -507,87 -681,260l0 0c-177,178 -265,401 -266,687l0 0c1,282 88,503 266,681l0 0c178,177 400,265 681,266l0 0c265,-1 491,-87 690,-263l0 0 117 -104 0 492 -32 21c-229,152 -490,228 -775,228l0 -140c247,0 467,-61 666,-185l0 -115c-196,137 -421,206 -666,206l0 0c-311,1 -577,-103 -780,-307l0 0c-205,-204 -308,-469 -307,-780l0 0c-1,-315 102,-582 307,-786l0 0c200,-201 466,-302 780,-301l0 0c141,0 289,27 444,80l0 0 5 2 172 92 46 30 0 -121c-165,-115 -385,-176 -666,-176l0 0c-343,1 -619,111 -845,336l0 0c-225,226 -335,502 -336,845l0 0c1,343 112,619 336,845l0 0c225,225 502,335 845,336l0 140c-1,0 -2,0 -3,0l0 0c-373,0 -692,-127 -941,-377l0 0z"/>
   <polygon class="fil0" points="10046,2222 10046,4397 9806,4397 9806,2222 9479,2222 9479,1982 9806,1982 9806,924 10046,924 10046,1982 10327,1982 10327,2222 "/>
   <path class="fil0" d="M10046 2292l0 -70 0 70zm-497 -140l327 0 0 2175 99 0 0 -2175 281 0 0 -99 -281 0 0 -1058 -99 0 0 1058 -327 0 0 99zm187 2315l0 -2175 -327 0 0 -380 327 0 0 -1058 380 0 0 1058 281 0 0 380 -281 0 0 2175 -380 0 0 0z"/>
   <polygon class="fil0" points="11350,5531 11081,5531 11706,4175 10689,1982 10946,1982 11847,3888 12735,1982 12999,1982 "/>
   <path class="fil0" d="M11784 4174l-593 1286 115 0 1584 -3409 -108 0 -933 2001 -945 -2001 -103 0 985 2122 0 0zm-813 1427l423 0 19 -41 1695 -3649 -418 0 -844 1811 -855 -1811 -412 0 1050 2263 -658 1427zm378 -70l0 -70 0 70z"/>
   <path class="fil1" d="M112 3055l-7 0c-58,0 -105,-50 -105,-111l0 0c0,-61 47,-111 105,-111l657 0c64,1 118,-19 117,-94l0 -662 0 -7c0,-61 47,-111 105,-111l0 0c58,0 105,50 105,111l0 719c4,96 -54,187 -123,221l0 0c-68,37 -138,44 -205,44l0 0 -211 0 -439 0 0 0z"/>
   <path class="fil2" d="M2316 3055l7 0c58,0 105,-50 105,-111l0 0c0,-61 -47,-111 -105,-111l-657 0c-64,1 -118,-19 -117,-94l0 -662 0 -7c0,-61 -47,-111 -105,-111l0 0c-58,0 -105,50 -105,111l0 719c-4,96 54,187 123,221l0 0c68,37 138,44 205,44l0 0 211 0 439 0 0 0z"/>
   <path class="fil2" d="M116 3304l-7 0c-58,0 -105,50 -105,111l0 0c0,61 47,111 105,111l657 0c64,-1 118,19 117,94l0 662 0 7c0,61 47,111 105,111l0 0c58,0 105,-50 105,-111l0 -719c4,-96 -54,-187 -123,-221l0 0c-68,-37 -138,-44 -205,-44l0 0 -211 0 -439 0 0 0z"/>
   <path class="fil0" d="M2316 3304l7 0c58,0 105,50 105,111l0 0c0,61 -47,111 -105,111l-657 0c-64,-1 -118,19 -117,94l0 662 0 7c0,61 -47,111 -105,111l0 0c-58,0 -105,-50 -105,-111l0 -719c-4,-96 54,-187 123,-221l0 0c68,-37 138,-44 205,-44l0 0 211 0 439 0 0 0z"/>
   <g>
    <polygon class="fil0" points="8707,4467 8707,4397 8777,4397 8707,4397 8707,4467 8637,4467 8637,1912 9017,1912 9017,4467 8707,4467 "/>
    <polygon class="fil0" points="8877,4327 8877,2052 8777,2052 8777,4327 8877,4327 "/>
    <circle class="fil3" cx="8830" cy="1356" r="260"/>
   </g>
  </g>
  <path class="fil4" d="M4476 4878c58,0 107,16 145,48 38,32 58,74 59,126l1 2 -311 131c28,34 66,51 113,51 48,0 87,-19 118,-56l53 59c-51,52 -111,79 -180,79 -60,0 -112,-20 -155,-60 -43,-40 -65,-93 -65,-159 0,-45 11,-85 34,-120 22,-34 50,-60 83,-76 33,-16 68,-24 105,-24zm-135 222c0,7 0,12 1,15l236 -102c-18,-35 -50,-53 -97,-53 -35,0 -67,12 -97,37 -29,25 -44,59 -44,103z"/>
  <path id="1" class="fil4" d="M4862 5080l0 231 -90 0 0 -426 90 0 0 78c14,-26 34,-47 60,-62 25,-15 53,-22 82,-22 48,0 87,15 117,44 30,29 44,72 44,127l0 261 -90 0 0 -234c0,-79 -33,-118 -98,-118 -31,0 -58,10 -81,31 -23,21 -34,51 -34,90z"/>
  <path id="12" class="fil4" d="M5376 4957l0 216c0,20 5,36 16,48 11,12 26,18 45,18 19,0 38,-9 55,-28l37 63c-32,28 -66,42 -105,42 -38,0 -71,-13 -98,-40 -27,-26 -40,-62 -40,-107l0 -420 90 0 0 134 112 0 0 72 -112 0z"/>
  <path id="123" class="fil4" d="M5794 4878c58,0 107,16 145,48 38,32 58,74 59,126l1 2 -311 131c28,34 66,51 113,51 48,0 87,-19 118,-56l53 59c-51,52 -111,79 -180,79 -60,0 -112,-20 -155,-60 -43,-40 -65,-93 -65,-159 0,-45 11,-85 34,-120 22,-34 50,-60 83,-76 33,-16 68,-24 105,-24zm-135 222c0,7 0,12 1,15l236 -102c-18,-35 -50,-53 -97,-53 -35,0 -67,12 -97,37 -29,25 -44,59 -44,103z"/>
  <path id="1234" class="fil4" d="M6314 4969c-44,0 -78,14 -100,43 -22,29 -34,68 -34,116l0 183 -90 0 0 -426 90 0 0 86c14,-27 34,-49 59,-66 25,-17 51,-26 79,-26l1 91c-2,0 -3,0 -5,0z"/>
  <path id="12345" class="fil4" d="M6637 4878c57,0 106,20 147,59 41,40 61,92 61,158 0,66 -20,119 -61,160 -40,41 -87,62 -141,62 -54,0 -102,-24 -145,-71l0 220 -90 0 0 -582 90 0 0 75c35,-54 81,-81 139,-81zm-140 220c0,41 12,74 37,100 25,26 55,39 90,39 35,0 66,-13 92,-38 26,-26 39,-59 39,-100 0,-41 -13,-75 -38,-102 -26,-27 -56,-40 -92,-40 -36,0 -66,13 -91,40 -25,27 -37,61 -37,101z"/>
  <path id="123456" class="fil4" d="M7171 4969c-44,0 -78,14 -100,43 -22,29 -34,68 -34,116l0 183 -90 0 0 -426 90 0 0 86c14,-27 34,-49 59,-66 25,-17 51,-26 79,-26l1 91c-2,0 -3,0 -5,0z"/>
  <path id="1234567" class="fil4" d="M7356 5311l-90 0 0 -426 90 0 0 426zm-84 -511c-11,-11 -17,-25 -17,-40 0,-16 6,-29 17,-40 11,-11 25,-17 40,-17 15,0 29,6 40,17 11,11 17,25 17,40 0,15 -6,29 -17,40 -11,11 -25,17 -40,17 -16,0 -29,-6 -40,-17z"/>
  <path id="12345678" class="fil4" d="M7789 5183c0,41 -15,73 -44,97 -29,24 -67,36 -113,36 -31,0 -63,-6 -97,-17 -33,-11 -63,-27 -89,-47l43 -70c50,37 98,56 144,56 20,0 36,-5 48,-14 12,-9 18,-21 18,-36 0,-21 -28,-41 -85,-58 -4,-2 -7,-3 -10,-3 -89,-24 -133,-64 -133,-120 0,-40 15,-71 46,-95 31,-24 71,-36 120,-36 49,0 96,14 139,43l-34 67c-35,-23 -72,-34 -113,-34 -21,0 -39,4 -52,12 -13,8 -20,19 -20,35 0,14 7,24 21,30 10,5 23,9 40,14 17,4 33,9 46,13 13,4 26,9 39,14 13,5 26,13 40,22 29,19 43,49 43,90z"/>
  <path id="123456789" class="fil4" d="M8085 4878c58,0 107,16 145,48 38,32 58,74 59,126l1 2 -311 131c28,34 66,51 113,51 48,0 87,-19 118,-56l53 59c-51,52 -111,79 -180,79 -60,0 -112,-20 -155,-60 -43,-40 -65,-93 -65,-159 0,-45 11,-85 34,-120 22,-34 50,-60 83,-76 33,-16 68,-24 105,-24zm-135 222c0,7 0,12 1,15l236 -102c-18,-35 -50,-53 -97,-53 -35,0 -67,12 -97,37 -29,25 -44,59 -44,103z"/>
  <path id="12345678910" class="fil4" d="M8775 5317c-54,0 -101,-20 -141,-61 -40,-41 -60,-94 -60,-160 0,-66 21,-119 62,-159 41,-40 90,-59 146,-59 56,0 102,27 139,80l0 -74 90 0 0 426 -90 0 0 -70c-17,25 -39,43 -65,57 -26,13 -53,20 -80,20zm-111 -218c0,41 13,74 39,100 26,26 57,38 92,38 35,0 65,-13 90,-39 25,-26 37,-59 37,-100 0,-41 -12,-75 -37,-102 -25,-27 -55,-41 -91,-41 -36,0 -67,14 -92,41 -26,27 -38,61 -38,102z"/>
  <path id="1234567891011" class="fil4" d="M9443 5183c0,41 -15,73 -44,97 -29,24 -67,36 -113,36 -31,0 -63,-6 -97,-17 -33,-11 -63,-27 -89,-47l43 -70c50,37 98,56 144,56 20,0 36,-5 48,-14 12,-9 18,-21 18,-36 0,-21 -28,-41 -85,-58 -4,-2 -7,-3 -10,-3 -89,-24 -133,-64 -133,-120 0,-40 15,-71 46,-95 31,-24 71,-36 120,-36 49,0 96,14 139,43l-34 67c-35,-23 -72,-34 -113,-34 -21,0 -39,4 -52,12 -13,8 -20,19 -20,35 0,14 7,24 21,30 10,5 23,9 40,14 17,4 33,9 46,13 13,4 26,9 39,14 13,5 26,13 40,22 29,19 43,49 43,90z"/>
  <path id="123456789101112" class="fil4" d="M9849 5183c0,41 -15,73 -44,97 -29,24 -67,36 -113,36 -31,0 -63,-6 -97,-17 -33,-11 -63,-27 -89,-47l43 -70c50,37 98,56 144,56 20,0 36,-5 48,-14 12,-9 18,-21 18,-36 0,-21 -28,-41 -85,-58 -4,-2 -7,-3 -10,-3 -89,-24 -133,-64 -133,-120 0,-40 15,-71 46,-95 31,-24 71,-36 120,-36 49,0 96,14 139,43l-34 67c-35,-23 -72,-34 -113,-34 -21,0 -39,4 -52,12 -13,8 -20,19 -20,35 0,14 7,24 21,30 10,5 23,9 40,14 17,4 33,9 46,13 13,4 26,9 39,14 13,5 26,13 40,22 29,19 43,49 43,90z"/>
  <path id="12345678910111213" class="fil4" d="M10145 4878c58,0 107,16 145,48 38,32 58,74 59,126l1 2 -311 131c28,34 66,51 113,51 48,0 87,-19 118,-56l53 59c-51,52 -111,79 -180,79 -60,0 -112,-20 -155,-60 -43,-40 -65,-93 -65,-159 0,-45 11,-85 34,-120 22,-34 50,-60 83,-76 33,-16 68,-24 105,-24zm-135 222c0,7 0,12 1,15l236 -102c-18,-35 -50,-53 -97,-53 -35,0 -67,12 -97,37 -29,25 -44,59 -44,103z"/>
  <path id="1234567891011121314" class="fil4" d="M10527 4957l0 216c0,20 5,36 16,48 11,12 26,18 45,18 19,0 38,-9 55,-28l37 63c-32,28 -66,42 -105,42 -38,0 -71,-13 -98,-40 -27,-26 -40,-62 -40,-107l0 -420 90 0 0 134 112 0 0 72 -112 0z"/>
  <path class="fil4" d="M12001 5066l0 231 -90 0 0 -426 90 0 0 78c13,-26 32,-47 58,-62 26,-15 54,-22 84,-22 67,0 113,28 137,83 42,-56 95,-83 158,-83 48,0 87,15 117,44 30,29 44,72 44,127l0 261 -90 0 0 -234c0,-79 -33,-118 -98,-118 -30,0 -57,10 -80,29 -23,20 -35,48 -36,85l0 237 -90 0 0 -234c0,-41 -7,-70 -22,-89 -14,-19 -37,-28 -68,-28 -31,0 -58,10 -81,31 -23,21 -34,51 -34,90z"/>
  <path id="1" class="fil4" d="M12898 5303c-54,0 -101,-20 -141,-61 -40,-41 -60,-94 -60,-160 0,-66 21,-119 62,-159 41,-40 90,-59 146,-59 56,0 102,27 139,80l0 -74 90 0 0 426 -90 0 0 -70c-17,25 -39,43 -65,57 -26,13 -53,20 -80,20zm-111 -218c0,41 13,74 39,100 26,26 57,38 92,38 35,0 65,-13 90,-39 25,-26 37,-59 37,-100 0,-41 -12,-75 -37,-102 -25,-27 -55,-41 -91,-41 -36,0 -67,14 -92,41 -26,27 -38,61 -38,102z"/>
  <path id="12" class="fil4" d="M13353 5066l0 231 -90 0 0 -426 90 0 0 78c14,-26 34,-47 60,-62 25,-15 53,-22 82,-22 48,0 87,15 117,44 30,29 44,72 44,127l0 261 -90 0 0 -234c0,-79 -33,-118 -98,-118 -31,0 -58,10 -81,31 -23,21 -34,51 -34,90z"/>
  <path id="123" class="fil4" d="M13955 5303c-54,0 -101,-20 -141,-61 -40,-41 -60,-94 -60,-160 0,-66 21,-119 62,-159 41,-40 90,-59 146,-59 56,0 102,27 139,80l0 -74 90 0 0 426 -90 0 0 -70c-17,25 -39,43 -65,57 -26,13 -53,20 -80,20zm-111 -218c0,41 13,74 39,100 26,26 57,38 92,38 35,0 65,-13 90,-39 25,-26 37,-59 37,-100 0,-41 -12,-75 -37,-102 -25,-27 -55,-41 -91,-41 -36,0 -67,14 -92,41 -26,27 -38,61 -38,102z"/>
  <path id="1234" class="fil4" d="M14505 5387c79,0 119,-51 119,-153l0 -24c-12,19 -30,35 -56,48 -25,13 -53,20 -81,20 -57,0 -103,-20 -139,-59 -36,-40 -55,-89 -55,-147 0,-59 18,-108 55,-147 36,-40 82,-59 137,-59 55,0 102,19 139,58l0 -51 90 0 0 366c0,74 -19,131 -58,171 -39,40 -89,59 -150,59 -47,0 -88,-11 -124,-34 -36,-22 -61,-54 -77,-96l79 -34c21,56 62,84 123,84zm-124 -320c0,35 11,65 32,91 22,25 51,38 87,38 37,0 66,-12 89,-37 23,-25 34,-55 34,-92 0,-37 -11,-68 -34,-93 -23,-25 -53,-38 -89,-38 -36,0 -65,13 -87,39 -22,26 -32,57 -32,92z"/>
  <path id="12345" class="fil4" d="M15037 4864c58,0 107,16 145,48 38,32 58,74 59,126l1 2 -311 131c28,34 66,51 113,51 48,0 87,-19 118,-56l53 59c-51,52 -111,79 -180,79 -60,0 -112,-20 -155,-60 -43,-40 -65,-93 -65,-159 0,-45 11,-85 34,-120 22,-34 50,-60 83,-76 33,-16 68,-24 105,-24zm-135 222c0,7 0,12 1,15l236 -102c-18,-35 -50,-53 -97,-53 -35,0 -67,12 -97,37 -29,25 -44,59 -44,103z"/>
  <path id="123456" class="fil4" d="M15424 5066l0 231 -90 0 0 -426 90 0 0 78c13,-26 32,-47 58,-62 26,-15 54,-22 84,-22 67,0 113,28 137,83 42,-56 95,-83 158,-83 48,0 87,15 117,44 30,29 44,72 44,127l0 261 -90 0 0 -234c0,-79 -33,-118 -98,-118 -30,0 -57,10 -80,29 -23,20 -35,48 -36,85l0 237 -90 0 0 -234c0,-41 -7,-70 -22,-89 -14,-19 -37,-28 -68,-28 -31,0 -58,10 -81,31 -23,21 -34,51 -34,90z"/>
  <path id="1234567" class="fil4" d="M16341 4864c58,0 107,16 145,48 38,32 58,74 59,126l1 2 -311 131c28,34 66,51 113,51 48,0 87,-19 118,-56l53 59c-51,52 -111,79 -180,79 -60,0 -112,-20 -155,-60 -43,-40 -65,-93 -65,-159 0,-45 11,-85 34,-120 22,-34 50,-60 83,-76 33,-16 68,-24 105,-24zm-135 222c0,7 0,12 1,15l236 -102c-18,-35 -50,-53 -97,-53 -35,0 -67,12 -97,37 -29,25 -44,59 -44,103z"/>
  <path id="12345678" class="fil4" d="M16727 5066l0 231 -90 0 0 -426 90 0 0 78c14,-26 34,-47 60,-62 25,-15 53,-22 82,-22 48,0 87,15 117,44 30,29 44,72 44,127l0 261 -90 0 0 -234c0,-79 -33,-118 -98,-118 -31,0 -58,10 -81,31 -23,21 -34,51 -34,90z"/>
  <path id="123456789" class="fil4" d="M17241 4942l0 216c0,20 5,36 16,48 11,12 26,18 45,18 19,0 38,-9 55,-28l37 63c-32,28 -66,42 -105,42 -38,0 -71,-13 -98,-40 -27,-26 -40,-62 -40,-107l0 -420 90 0 0 134 112 0 0 72 -112 0z"/>
  <path id="12345678910" class="fil4" d="M17989 5169c0,41 -15,73 -44,97 -29,24 -67,36 -113,36 -31,0 -63,-6 -97,-17 -33,-11 -63,-27 -89,-47l43 -70c50,37 98,56 144,56 20,0 36,-5 48,-14 12,-9 18,-21 18,-36 0,-21 -28,-41 -85,-58 -4,-2 -7,-3 -10,-3 -89,-24 -133,-64 -133,-120 0,-40 15,-71 46,-95 31,-24 71,-36 120,-36 49,0 96,14 139,43l-34 67c-35,-23 -72,-34 -113,-34 -21,0 -39,4 -52,12 -13,8 -20,19 -20,35 0,14 7,24 21,30 10,5 23,9 40,14 17,4 33,9 46,13 13,4 26,9 39,14 13,5 26,13 40,22 29,19 43,49 43,90z"/>
  <path id="1234567891011" class="fil4" d="M18190 5184c25,26 58,39 97,39 39,0 71,-13 97,-39 25,-26 38,-59 38,-101 0,-41 -13,-75 -38,-101 -25,-26 -58,-39 -97,-39 -39,0 -71,13 -97,39 -25,26 -38,59 -38,101 0,41 13,75 38,101zm257 55c-43,42 -96,64 -160,64 -64,0 -118,-21 -160,-64 -43,-42 -64,-94 -64,-156 0,-61 21,-113 64,-156 43,-42 96,-64 160,-64 64,0 118,21 160,64 43,42 64,94 64,156 0,61 -21,113 -64,156z"/>
  <path id="123456789101112" class="fil4" d="M18703 4867l0 75 112 0 0 72 -112 0 0 282 -90 0 0 -427c0,-46 14,-82 43,-108 29,-26 65,-39 110,-39 45,0 83,14 114,42l-37 72c-20,-21 -44,-31 -74,-31 -44,0 -67,20 -67,61z"/>
  <path id="12345678910111213" class="fil4" d="M18995 4942l0 216c0,20 5,36 16,48 11,12 26,18 45,18 19,0 38,-9 55,-28l37 63c-32,28 -66,42 -105,42 -38,0 -71,-13 -98,-40 -27,-26 -40,-62 -40,-107l0 -420 90 0 0 134 112 0 0 72 -112 0z"/>
  <polygon id="1234567891011121314" class="fil4" points="19419,5296 19317,5296 19169,4870 19262,4870 19368,5192 19474,4870 19567,4870 19672,5192 19778,4870 19871,4870 19724,5296 19621,5296 19520,5005 "/>
  <path id="123456789101112131415" class="fil4" d="M20125 5303c-54,0 -101,-20 -141,-61 -40,-41 -60,-94 -60,-160 0,-66 21,-119 62,-159 41,-40 90,-59 146,-59 56,0 102,27 139,80l0 -74 90 0 0 426 -90 0 0 -70c-17,25 -39,43 -65,57 -26,13 -53,20 -80,20zm-111 -218c0,41 13,74 39,100 26,26 57,38 92,38 35,0 65,-13 90,-39 25,-26 37,-59 37,-100 0,-41 -12,-75 -37,-102 -25,-27 -55,-41 -91,-41 -36,0 -67,14 -92,41 -26,27 -38,61 -38,102z"/>
  <path id="12345678910111213141516" class="fil4" d="M20713 4954c-44,0 -78,14 -100,43 -22,29 -34,68 -34,116l0 183 -90 0 0 -426 90 0 0 86c14,-27 34,-49 59,-66 25,-17 51,-26 79,-26l1 91c-2,0 -3,0 -5,0z"/>
  <path id="1234567891011121314151617" class="fil4" d="M21001 4864c58,0 107,16 145,48 38,32 58,74 59,126l1 2 -311 131c28,34 66,51 113,51 48,0 87,-19 118,-56l53 59c-51,52 -111,79 -180,79 -60,0 -112,-20 -155,-60 -43,-40 -65,-93 -65,-159 0,-45 11,-85 34,-120 22,-34 50,-60 83,-76 33,-16 68,-24 105,-24zm-135 222c0,7 0,12 1,15l236 -102c-18,-35 -50,-53 -97,-53 -35,0 -67,12 -97,37 -29,25 -44,59 -44,103z"/>
 </g>
</svg>
