<?xml version="1.0" encoding="UTF-8"?>
<!DOCTYPE svg PUBLIC "-//W3C//DTD SVG 1.1//EN" "http://www.w3.org/Graphics/SVG/1.1/DTD/svg11.dtd">
<!-- Creator: CorelDRAW X5 -->
<svg xmlns="http://www.w3.org/2000/svg" xml:space="preserve" width="0.924169in" height="0.881004in" style="shape-rendering:geometricPrecision; text-rendering:geometricPrecision; image-rendering:optimizeQuality; fill-rule:evenodd; clip-rule:evenodd"
viewBox="0 0 263 251"
 xmlns:xlink="http://www.w3.org/1999/xlink">
 <defs>
  <style type="text/css">
   <![CDATA[
    .fil0 {fill:#4F5D73}
   ]]>
  </style>
 </defs>
 <g id="Layer_x0020_1">
  <metadata id="CorelCorpID_0Corel-Layer"/>
  <g id="_647395696">
   <path class="fil0" d="M228 74c-44,20 -32,84 -32,142l-162 0 0 -162 121 0 26 -31c-33,0 -66,0 -98,0 -30,0 -69,-8 -79,21 -7,23 -5,179 6,192 16,20 63,12 89,12 143,0 134,29 129,-175z"/>
   <path class="fil0" d="M115 136c-22,-25 -40,-64 -57,-41 -13,17 53,88 61,88 11,0 41,-59 68,-93 43,-54 77,-55 76,-82 -18,-16 -27,-5 -44,9 -15,12 -27,21 -39,34 -15,17 -35,42 -48,62l-11 17c-7,9 -2,3 -6,7z"/>
  </g>
 </g>
</svg>
