<?xml version="1.0" encoding="UTF-8"?>
<!DOCTYPE svg PUBLIC "-//W3C//DTD SVG 1.1//EN" "http://www.w3.org/Graphics/SVG/1.1/DTD/svg11.dtd">
<!-- Creator: CorelDRAW X5 -->
<svg xmlns="http://www.w3.org/2000/svg" xml:space="preserve" width="0.590047in" height="0.598224in" style="shape-rendering:geometricPrecision; text-rendering:geometricPrecision; image-rendering:optimizeQuality; fill-rule:evenodd; clip-rule:evenodd"
viewBox="0 0 86 87"
 xmlns:xlink="http://www.w3.org/1999/xlink">
 <defs>
  <style type="text/css">
   <![CDATA[
    .fil0 {fill:#4F5D73}
   ]]>
  </style>
 </defs>
 <g id="Layer_x0020_1">
  <metadata id="CorelCorpID_0Corel-Layer"/>
  <g id="_646044560">
   <path class="fil0" d="M10 87c5,-2 45,-42 47,-46l-11 -11c-4,2 -35,34 -43,42 -9,9 5,15 7,16z"/>
   <path class="fil0" d="M48 27l12 12c4,-3 14,-13 16,-17 0,0 -6,-15 -15,-8 -3,3 -11,11 -13,14z"/>
   <path class="fil0" d="M74 48c-3,0 -6,0 -5,4 2,7 4,-5 6,12l5 0c3,-17 4,-4 6,-12 1,-4 -2,-4 -5,-4 0,-5 1,-4 -1,-7l-4 0c-2,3 -1,3 -1,7z"/>
   <path class="fil0" d="M41 7c-8,1 -7,6 0,6 0,4 -1,6 1,9l4 0c2,-3 1,-5 1,-9 4,0 4,0 5,-3 -1,-4 0,-3 -5,-3 0,-4 0,-4 -1,-7l-4 0c-1,2 -1,3 -2,7z"/>
   <path class="fil0" d="M14 27c-8,0 -8,6 0,6l1 9 5 0c2,-3 1,-5 1,-9 8,0 8,-6 0,-6 0,-5 1,-4 -1,-7l-3 0c-2,3 -1,3 -1,7z"/>
  </g>
 </g>
</svg>
