<?xml version="1.0" encoding="UTF-8"?>
<!DOCTYPE svg PUBLIC "-//W3C//DTD SVG 1.1//EN" "http://www.w3.org/Graphics/SVG/1.1/DTD/svg11.dtd">
<!-- Creator: CorelDRAW X5 -->
<svg xmlns="http://www.w3.org/2000/svg" xml:space="preserve" width="0.305988in" height="1.49267in" style="shape-rendering:geometricPrecision; text-rendering:geometricPrecision; image-rendering:optimizeQuality; fill-rule:evenodd; clip-rule:evenodd"
viewBox="0 0 28 134"
 xmlns:xlink="http://www.w3.org/1999/xlink">
 <defs>
  <style type="text/css">
   <![CDATA[
    .fil0 {fill:#287E6C;fill-rule:nonzero}
   ]]>
  </style>
 </defs>
 <g id="Layer_x0020_1">
  <metadata id="CorelCorpID_0Corel-Layer"/>
  <path class="fil0" d="M28 61l0 11c-2,0 -4,1 -6,3 -1,2 -2,4 -3,8 0,3 -1,9 -1,16 0,8 0,13 0,15 0,4 -1,7 -1,9 -1,2 -2,4 -3,6 -1,1 -2,3 -4,3 -1,1 -3,1 -5,1l-2 0 0 -11 1 0c3,0 5,-1 6,-3 1,-2 1,-6 1,-12 0,-12 0,-19 0,-22 0,-5 1,-9 3,-12 1,-3 3,-5 6,-7 -3,-3 -6,-6 -7,-10 -1,-4 -2,-11 -2,-21 0,-9 0,-15 0,-16 0,-3 -1,-5 -2,-7 -1,-1 -3,-2 -6,-2l-1 0 0 -11 2 0c3,0 5,0 6,1 2,1 3,3 5,5 1,2 2,5 2,9 0,4 1,10 1,18 0,8 0,14 1,17 0,3 1,6 3,8 1,2 3,3 6,3z"/>
 </g>
</svg>
