<?xml version="1.0" encoding="utf-8"?>
<!-- Generator: Adobe Illustrator 15.1.0, SVG Export Plug-In . SVG Version: 6.00 Build 0)  -->
<!DOCTYPE svg PUBLIC "-//W3C//DTD SVG 1.1//EN" "http://www.w3.org/Graphics/SVG/1.1/DTD/svg11.dtd">
<svg version="1.1" id="Layer_1" xmlns="http://www.w3.org/2000/svg" xmlns:xlink="http://www.w3.org/1999/xlink" x="0px" y="0px"
	 width="64px" height="64px" viewBox="0 0 64 64" enable-background="new 0 0 64 64" xml:space="preserve">
<g>
	<defs>
		<rect id="SVGID_1_" width="64" height="64"/>
	</defs>
	<clipPath id="SVGID_2_">
		<use xlink:href="#SVGID_1_"  overflow="visible"/>
	</clipPath>
	<path clip-path="url(#SVGID_2_)" fill="#4F5D73" d="M64,32c0,17.673-14.327,32-32,32S0,49.673,0,32S14.327,0,32,0S64,14.327,64,32"
		/>
	<path clip-path="url(#SVGID_2_)" fill="#FFFFFF" d="M26.299,42.248c-5.507-3.033-9.971-6.745-10.016-6.782
		c-0.613-0.512-1.472-0.612-2.184-0.251c-0.713,0.36-1.144,1.109-1.095,1.907c0.385,6.333,4.832,18.31,18.903,18.31
		c0.015,0,0.029-0.004,0.045-0.004c0.015,0,0.029,0.004,0.044,0.004c14.147,0,18.615-11.977,19-18.31
		c0.048-0.794-0.378-1.541-1.086-1.903c-0.708-0.361-1.563-0.27-2.178,0.234c-0.046,0.037-4.596,3.749-10.129,6.795
		c-1.469,0.809-2.646,1.719-3.604,2.66v-9.17c2.878-0.742,5.125-3.039,5.791-5.947C43.346,28.977,46,25.801,46,22
		s-2.654-6.977-6.209-7.791C38.977,10.654,35.801,8,32,8s-6.977,2.654-7.791,6.209C20.654,15.023,18,18.199,18,22
		s2.654,6.977,6.209,7.791c0.666,2.908,2.913,5.205,5.791,5.947v9.271C29.026,44.032,27.821,43.086,26.299,42.248 M27,22
		c0-2.761,2.239-5,5-5c2.761,0,5,2.239,5,5s-2.239,5-5,5C29.239,27,27,24.761,27,22"/>
</g>
</svg>
