<?xml version="1.0" encoding="utf-8"?>
<!-- Generator: Adobe Illustrator 15.1.0, SVG Export Plug-In . SVG Version: 6.00 Build 0)  -->
<!DOCTYPE svg PUBLIC "-//W3C//DTD SVG 1.1//EN" "http://www.w3.org/Graphics/SVG/1.1/DTD/svg11.dtd">
<svg version="1.1" id="Layer_1" xmlns="http://www.w3.org/2000/svg" xmlns:xlink="http://www.w3.org/1999/xlink" x="0px" y="0px"
	 width="64px" height="64px" viewBox="0 0 64 64" enable-background="new 0 0 64 64" xml:space="preserve">
<g>
	<defs>
		<rect id="SVGID_1_" width="64" height="64"/>
	</defs>
	<clipPath id="SVGID_2_">
		<use xlink:href="#SVGID_1_"  overflow="visible"/>
	</clipPath>
	<path clip-path="url(#SVGID_2_)" fill="#FFFFFF" d="M50,46H14c-1.105,0-2,0.895-2,2s0.895,2,2,2h36c1.105,0,2-0.895,2-2
		S51.105,46,50,46"/>
	<polygon clip-path="url(#SVGID_2_)" fill="#FFFFFF" points="43.281,32 20.719,32 17.722,40 46.277,40 	"/>
	<path clip-path="url(#SVGID_2_)" fill="#FFFFFF" d="M35.896,12.289c-2.143-5.718-5.648-5.718-7.791,0L23.716,24h16.567
		L35.896,12.289z"/>
	<path clip-path="url(#SVGID_2_)" fill="#4F5D73" d="M32,0C14.327,0,0,14.327,0,32s14.327,32,32,32s32-14.327,32-32S49.673,0,32,0
		 M28.105,12.288c2.142-5.718,5.648-5.718,7.79,0L40.283,24H23.717L28.105,12.288z M20.719,32h22.562l2.997,8H17.722L20.719,32z
		 M50,50H14c-1.105,0-2-0.895-2-2s0.895-2,2-2h36c1.105,0,2,0.895,2,2S51.105,50,50,50"/>
</g>
</svg>
