<?xml version="1.0" encoding="UTF-8"?>
<!DOCTYPE svg PUBLIC "-//W3C//DTD SVG 1.1//EN" "http://www.w3.org/Graphics/SVG/1.1/DTD/svg11.dtd">
<!-- Creator: CorelDRAW X5 -->
<svg xmlns="http://www.w3.org/2000/svg" xml:space="preserve" width="0.88889in" height="0.88889in" style="shape-rendering:geometricPrecision; text-rendering:geometricPrecision; image-rendering:optimizeQuality; fill-rule:evenodd; clip-rule:evenodd"
viewBox="0 0 93 93"
 xmlns:xlink="http://www.w3.org/1999/xlink">
 <defs>
  <style type="text/css">
   <![CDATA[
    .fil1 {fill:#5A6579}
    .fil0 {fill:#FEFEFE}
   ]]>
  </style>
 </defs>
 <g id="Layer_x0020_1">
  <metadata id="CorelCorpID_0Corel-Layer"/>
  <path class="fil0" d="M23 51c0,14 10,25 23,25 13,0 23,-11 23,-25 0,-14 -14,-25 -23,-39 -9,15 -23,26 -23,39z"/>
  <path class="fil1" d="M46 76c-13,0 -23,-11 -23,-25 0,-14 14,-25 23,-39 9,15 23,26 23,39 0,14 -10,25 -23,25zm0 -76c-26,0 -46,21 -46,46 0,26 21,46 46,46 26,0 46,-21 46,-46 0,-26 -21,-46 -46,-46z"/>
 </g>
</svg>
